<svg xmlns="http://www.w3.org/2000/svg" id="svg1">
  <path 
          d="M 443.76477,10.115024 C 444.13339,18.467924 443.95635,21.766834 443.13948,21.766834 442.51277,21.766834 442,22.485874 442,23.364694 442,24.243524 439.3736,27.389704 436.16355,30.356214 429.9907,36.060734 426.33657,41.897374 423.54163,50.516834 422.60533,53.404334 421.68903,55.766834 421.50541,55.766834 420.5309,55.766834 414.81384,45.099514 413.84304,41.469804 412.85258,37.766584 412.97712,36.732004 414.85694,33.047254 417.88087,27.119864 417.50611,25.349804 414.37413,30.766834 410.67313,37.168014 411.00908,40.734284 416.37053,51.959604 418.91674,57.290624 421,62.637514 421,63.841564 421,67.324174 424.4371,71.951014 430.18196,76.201824 438.68446,82.493104 441.86269,85.813434 446.52835,93.279094 457.74437,111.22617 459.69156,126.99024 452.00335,137.60351 449.75885,140.70196 440.76218,148.65697 432.30816,155.01836 431.48601,155.637 430.46905,154.72899 429.02954,152.09101 427.8818,149.98771 425.39864,146.34297 423.5114,143.99158 418.50709,137.75648 417.90706,134.5035 419.54648,122.49618 420.31464,116.87004 421.2119,111.14183 421.54037,109.76683 422.01692,107.77202 421.92567,107.5953 421.08881,108.89228 419.30013,111.66444 416,127.55701 416,133.39867 L 416,138.95307 411.06931,134.82486 C 407.7722,132.06436 405.55442,129.16695 404.37533,126.07955 402.69477,121.67909 402.6938,121.06524 404.35465,112.9966 405.31308,108.34039 405.9163,104.3498 405.69513,104.12863 405.06166,103.49515 401.058,114.55195 400.3756,118.81942 399.40535,124.88704 400.55073,127.2679 408.15841,134.99729 412.07528,138.97682 416.32221,143.81546 417.59604,145.74982 419.80344,149.10182 423.44239,160.65778 422.56639,161.53378 421.2949,162.80526 416.83641,159.59578 409.00387,151.7707 403.29973,146.07199 399.13056,142.73478 397.18013,142.30639 394.6105,141.74201 389.10723,142.63725 384.66326,144.34256 383.72703,144.70182 383.65065,142.24574 384.32727,133.53717 385.31361,120.84212 384.7939,118.36527 379.45844,110.33339 L 376.18124,105.39995 378.89504,102.83339 C 383.78809,98.205834 388.08813,89.313644 389.1547,81.617104 389.7561,77.277334 389.78073,74.147564 389.21791,73.584744 388.6551,73.021934 388.04259,75.085294 387.64594,78.880234 386.83558,86.633354 383.52422,92.511394 377.28174,97.277874 L 372.6189,100.83822 365.26248,93.552524 C 354.84793,83.238114 351.55662,76.324854 351.33049,64.288984 351.23727,59.326804 351.06844,52.791834 350.95533,49.766834 L 350.74967,44.266834 349.91339,48.766834 C 349.45343,51.241834 349.0443,58.666834 349.0042,65.266834 348.90362,81.822114 351.05806,87.960844 361.98965,102.26683 364.51127,105.56683 367.85484,109.61683 369.4198,111.26683 373.11494,115.16276 375.30534,120.4141 374.52767,123.51259 373.93892,125.85835 366.96845,136.05026 365.20931,137.13747 364.75003,137.42132 362.28862,136.90357 359.7395,135.98691 356.50343,134.82322 354.93217,133.63273 354.53294,132.04203 354.21845,130.78901 351.26988,126.79411 347.98057,123.16449 344.11825,118.90257 342,115.70295 342,114.13081 342,111.73114 344.48145,106.96507 346.4769,105.53214 347.14382,105.05323 347.09577,104.79212 346.33889,104.78214 344.34064,104.75579 339.99982,110.79332 340.00374,113.59356 340.00752,116.30148 341.13865,118.34585 347.50989,127.16005 349.45524,129.85132 350.86454,132.23563 350.64165,132.45851 350.41877,132.68139 346.02072,131.68411 340.8682,130.24232 329.16459,126.96739 308.11834,116.27585 307.52297,113.30288 307.29871,112.18305 306.85716,109.64993 306.54173,107.67372 305.97801,104.14183 305.83645,104.04519 298.23412,102.00257 287.50137,99.118864 285,98.046724 285,96.330124 285,95.459624 283.44646,94.423944 281.25,93.830174 279.1875,93.272604 276.45559,92.082394 275.1791,91.185264 270.47223,87.877214 258.04221,91.099264 244,99.267364 239.875,101.6668 235.31867,103.92045 233.87481,104.27548 231.52148,104.85415 231.20229,104.5985 230.79256,101.80678 230.54117,100.09396 231.16757,96.227834 232.18457,93.215374 233.20157,90.202924 234.31119,85.082874 234.6504,81.837484 L 235.26715,75.936784 230.38357,72.870814 C 227.69761,71.184524 224.58277,69.796284 223.46171,69.785834 222.34065,69.775384 215.81565,66.897264 208.96171,63.390004 199.60345,58.601254 194.38317,56.593894 188,55.329594 178.82332,53.511994 151.34769,44.931054 136,39.089424 123.53347,34.344414 108.52909,26.817084 102.76105,22.414234 100.22202,20.476154 96.26526,18.327374 93.96823,17.639174 91.6712,16.950964 89.58375,15.845694 89.32946,15.183004 88.56086,13.180054 78.427074,16.088894 74.122649,19.548034 70.18767,22.710264 58.888833,26.720804 46.833086,29.234494 40.327662,30.590914 39.196769,31.221124 33.566794,36.627304 27.499752,42.453174 18.543332,47.633084 5.75,52.715024 L 0,54.999124 0,149.38298 0,243.76683 877,243.76683 1754,243.76683 1754,139.12693 1754,34.487024 1748.75,35.137534 C 1742.477,35.914794 1735.9596,37.203554 1730.5,38.746284 1728.3,39.367944 1717.95,40.007514 1707.5,40.167534 1688.6385,40.456374 1688.4437,40.482064 1680.7845,43.691634 1676.5409,45.469864 1672.0409,47.725614 1670.7845,48.704404 1667.1616,51.526644 1662.046,53.908684 1654.5,56.287024 L 1647.5,58.493284 1645.8543,64.380064 C 1644.9491,67.617784 1643.7567,71.391834 1643.2044,72.766834 1642.2605,75.117054 1642.16,75.147014 1641.5272,73.266834 1641.1569,72.166834 1640.2229,69.812284 1639.4516,68.034504 1638.6803,66.256724 1638.2771,64.006724 1638.5555,63.034504 1638.834,62.062284 1638.5275,62.283174 1637.8743,63.525374 1637.0097,65.169754 1636.9776,66.422224 1637.7563,68.131264 1638.7812,70.380614 1638.6938,70.450974 1635.6629,69.816694 1632.6508,69.186334 1632.5028,68.933834 1632.5591,64.519744 1632.6235,59.474944 1631.5359,59.050224 1630.5104,63.719654 1629.7262,67.289994 1631.4106,70.766834 1633.9244,70.766834 1636.7871,70.766834 1640.4429,74.170204 1639.6894,76.133754 1639.111,77.641024 1638.8272,77.593994 1636.9058,75.672634 1635.1711,73.937944 1633.9841,73.637734 1630.6331,74.086174 1628.3599,74.390374 1625.5291,74.934574 1624.3425,75.295504 1622.8549,75.747964 1621.5352,75.301994 1620.0925,73.859284 1618.782,72.548794 1618,72.252644 1618,73.066834 1618,76.547744 1622.8586,77.757904 1628.6826,75.727644 1630.8131,74.984924 1632.4962,75.018924 1634.5818,75.846834 L 1637.5,77.005224 1634.8872,77.923624 C 1633.4502,78.428744 1631.4354,80.400104 1630.4098,82.304424 1629.3843,84.208754 1627.8247,85.766834 1626.944,85.766834 1625.2942,85.766834 1615.7605,91.617194 1615.1667,92.993984 1614.3698,94.841594 1601.4365,93.693224 1595.5,91.247734 1592.2,89.888334 1588.2837,88.774014 1586.7971,88.771464 1583.598,88.765984 1579,90.690984 1579,92.035754 1579,93.515764 1574.0592,91.910954 1570.6133,89.311714 1568.901,88.020084 1563.1827,84.871894 1557.906,82.315724 1552.6293,79.759564 1546.6658,76.115354 1544.6537,74.217494 1542.6416,72.319634 1539.9839,70.772424 1538.7477,70.779254 1537.5115,70.786094 1532.4532,71.911094 1527.507,73.279254 1522.5609,74.647424 1516.9844,75.766834 1515.1148,75.766834 1513.2453,75.766834 1508.5985,76.695164 1504.7886,77.829794 L 1497.8616,79.892754 1494.4308,87.051584 C 1492.5438,90.988934 1491,94.955504 1491,95.866174 1491,98.889364 1487.9323,100.26024 1480.7173,100.46119 1470.204,100.75401 1458.2841,103.57254 1457.6728,105.91019 1457.4009,106.94978 1455.2258,108.68007 1452.8392,109.75529 1450.4527,110.83051 1446.925,113.3515 1445,115.35751 1437.6233,123.04465 1429.9127,127.06263 1418.162,129.34288 1408.7603,131.16731 1409,131.19392 1409,128.32585 1409,126.98331 1408.6474,125.66693 1408.2164,125.40056 1407.7854,125.13419 1407.4479,126.12014 1407.4664,127.59154 1407.4968,130.01409 1407.0749,130.32319 1403,130.86344 1400.525,131.19158 1397.6,131.83834 1396.5,132.30067 1394.7184,133.04949 1394.6499,132.95703 1395.8724,131.45406 1396.6273,130.52608 1397.9897,129.76683 1398.8999,129.76683 1401.0222,129.76683 1405,126.99685 1405,125.519 1405,124.89506 1404.4375,125.09161 1403.75,125.95576 1403.0625,126.81991 1401.15,127.83777 1399.5,128.21765 1397.0803,128.77475 1396.7418,128.66255 1397.75,127.63759 1399.1502,126.2141 1399.4708,117.17585 1398.15,116.35955 1397.6825,116.07063 1397.4989,117.95658 1397.7418,120.55054 1398.141,124.81223 1397.8465,125.65238 1394.6859,129.26683 L 1391.1882,133.26683 1390.4537,130.38947 C 1389.9496,128.41465 1390.2338,126.64107 1391.3596,124.73518 1392.2618,123.20786 1392.9645,121.12768 1392.9211,120.11254 1392.8611,118.71064 1392.7103,118.62751 1392.2938,119.76683 1391.9922,120.59183 1390.8296,122.27371 1389.7101,123.50434 1387.4682,125.96899 1385.5453,125.23342 1383.9515,121.30155 1383.1732,119.38148 1383.1232,119.37509 1383.0634,121.18809 1383.0285,122.24478 1383.7018,123.88478 1384.5595,124.83253 1386.4016,126.86813 1387.208,131.81222 1386.0131,133.74556 1385.3966,134.74321 1384.758,134.12336 1383.6361,131.43825 1381.5488,126.44278 1380.7403,126.77926 1382.5444,131.89256 1384.3093,136.89503 1384.3051,136.76683 1382.7068,136.76683 1381.9955,136.76683 1380.983,135.30433 1380.4568,133.51683 1379.7779,131.21073 1378.3383,129.6605 1375.5,128.17915 1372.6384,126.68561 1371.5226,125.47608 1371.5794,123.92915 1371.6231,122.73987 1371.2856,121.76683 1370.8294,121.76683 1370.3732,121.76683 1370,123.11079 1370,124.75341 1370,127.20804 1370.6091,127.99447 1373.4195,129.16875 1375.3002,129.95457 1377.3411,131.53561 1377.9547,132.68217 1379.3378,135.26651 1378.5337,135.33183 1375.4264,132.88757 1373.6019,131.45248 1371.9739,131.12816 1368.5382,131.51541 1365.3521,131.87453 1363.2309,131.52892 1361.2696,130.33114 L 1358.5,128.63976 1361.4344,131.31394 C 1363.9258,133.58439 1364.986,133.90353 1368.4568,133.4278 1372.8995,132.81886 1373.5063,133.06471 1376.5,136.6864 1378.251,138.80469 1378.2821,139.0265 1376.75,138.46778 1375.656,138.06883 1375,138.31478 1375,139.1239 1375,139.83577 1373.9766,141.3796 1372.7259,142.55465 L 1370.4517,144.6911 1365.1171,142.13807 C 1358.665,139.05019 1355.0559,139.44699 1348.3345,143.98319 1345.7944,145.69749 1342.1792,147.62846 1340.3008,148.27424 1338.1426,149.01618 1334.1457,152.46119 1329.4427,157.63299 1323.1841,164.51542 1322,166.37041 1322,169.29221 L 1322,172.76683 1310.2101,172.76683 C 1302.9564,172.76683 1296.2045,172.18971 1292.6613,171.26683 1286.4422,169.64696 1276.2484,169.43796 1263.4126,170.66715 1257.1251,171.26926 1254.8439,171.92292 1253.1626,173.60423 1251.9732,174.79366 1250.5018,175.76683 1249.8929,175.76683 1249.2841,175.76683 1244.74,180.04183 1239.7951,185.26683 1233.9277,191.46652 1230.066,194.76683 1228.6791,194.76683 1227.426,194.76683 1224.0804,192.32644 1220.5269,188.82026 1214.9774,183.34471 1213.7871,182.6703 1205.5,180.30584 1200.55,178.89352 1189.2837,175.2652 1180.4639,172.2429 L 1164.4277,166.74782 1158.1821,169.19546 C 1154.747,170.54166 1149.8133,173.1759 1147.2183,175.04934 1144.6232,176.92278 1139.8643,179.5284 1136.6429,180.83961 1133.4215,182.15081 1129.9488,184.28777 1128.9257,185.58841 L 1127.0656,187.9532 1104.7828,186.93137 C 1092.5273,186.36937 1081.1964,185.41345 1079.6031,184.80709 1077.8934,184.15643 1068.9531,183.6725 1057.7872,183.62622 1043.1505,183.56556 1038.192,183.21046 1035.8806,182.05739 1034.073,181.15562 1031.2355,180.73758 1028.6965,180.99893 1026.3884,181.23652 1022.925,180.89163 1021,180.23251 1019.075,179.57339 1012.775,178.49009 1007,177.82518 989.67268,175.83016 983.35775,173.9571 988.74998,172.41205 989.71248,172.13627 988.89208,172.13843 986.92676,172.41686 984.81219,172.71644 981.13823,172.17682 977.92676,171.09496 L 972.5,169.26683 981.42058,168.76683 C 988.20338,168.38665 990.43838,167.90737 990.74668,166.76683 991.06838,165.57724 990.95888,165.54208 990.21758,166.59691 989.68528,167.35449 988.03848,167.77105 986.39149,167.56469 983.74686,167.23333 984.07628,166.9215 990.24998,163.91225 993.96248,162.10267 996.99998,160.44379 996.99998,160.22585 996.99998,159.66362 994.43388,160.62572 987.18023,163.90754 983.70436,165.48015 979.87639,166.76683 978.67363,166.76683 977.47087,166.76683 975.13977,167.14757 973.4934,167.61291 970.16523,168.55361 967.68474,168.08595 968.55279,166.68142 968.86367,166.1784 971.0996,165.76683 973.5215,165.76683 978.97647,165.76683 988.09328,162.45453 990.61398,159.55681 L 992.49998,157.38871 989.49998,159.43896 C 985.27475,162.32658 980.77223,163.49496 971.09759,164.2143 963.61268,164.77083 962.83438,164.67131 963.97003,163.30294 964.82906,162.26788 967.0094,161.76683 970.65456,161.76683 976.50214,161.76683 983,159.60677 983,157.66287 983,156.92079 982.23453,157.1496 981.01013,158.25766 979.84277,159.31411 976.84599,160.25801 973.76013,160.5412 L 968.5,161.02393 971,158.15253 C 972.84166,156.03728 972.94107,155.75053 971.37747,157.06361 970.21009,158.04397 966.92013,159.69949 964.06646,160.74254 959.46757,162.42349 958.91331,162.45709 959.18899,161.03821 959.36004,160.15777 961.075,158.57274 963,157.51591 964.925,156.45908 967.175,154.88813 968,154.02492 968.825,153.1617 968.08053,153.4255 966.34563,154.61113 962.26603,157.39913 961.5833,157.33244 963.54558,154.33761 964.49603,152.88705 964.97266,150.57053 964.72867,148.58761 L 964.32007,145.26683 964.16004,148.86184 C 964.05943,151.12195 963.20662,153.16422 961.86337,154.36184 960.68823,155.40959 959.16599,157.58253 958.48063,159.1906 L 957.23451,162.11437 956.50249,157.6906 C 955.9358,154.26599 954.60118,152.0246 950.59346,147.76683 947.74611,144.74183 942.62892,138.41005 939.22194,133.6962 932.74747,124.73822 925.8086,118.77497 921.83652,118.7552 920.55144,118.7488 914.39687,119.50534 908.15971,120.43639 L 896.81942,122.12921 891.01376,118.93753 C 887.47489,116.99202 880.9702,114.7964 874.35405,113.31412 868.38432,111.97667 860.60217,109.73139 857.06039,108.32461 847.7875,104.64147 842.16991,104.94455 821.21361,110.25863 793.27107,117.34427 793.99211,117.09187 790.5935,120.97723 781.5186,131.35184 778.14236,135.59086 776.63944,138.49718 775.7252,140.26513 773.82015,143.41156 772.40601,145.48924 770.99186,147.56691 768.73668,151.58206 767.39449,154.41179 765.3063,158.8143 764.56062,159.54309 762.22707,159.46215 754.46546,159.19291 751.92112,159.84013 748.25288,163.01683 742.06145,168.37862 738.15476,170.82626 737.49419,169.75743 736.53427,168.20425 732.78629,168.59995 729.5,170.60143 726.91247,172.17734 725.1625,172.34028 716.77215,171.78651 711.42184,171.43339 706.77816,170.87832 706.45287,170.55303 705.46872,169.56888 708.36577,165.76683 710.09982,165.76683 714.44282,165.76683 724.89592,154.08754 724.96879,149.15367 725.00317,146.82583 732.67416,139.30381 737.80848,136.56334 740.51415,135.11918 741,134.29726 741,131.16421 741,129.13161 739.35786,122.57204 737.3508,116.58739 733.03509,103.71883 733.34501,101.15246 740.17979,93.161134 L 744.36576,88.266834 739.69595,92.712214 C 732.04812,99.992494 731.48195,104.80378 736.44439,120.34382 740.16129,131.98341 739.98278,133.23867 734.25,135.77365 731.6375,136.92887 728.26719,139.05463 726.76043,140.49754 725.25367,141.94046 723.87125,142.92883 723.6884,142.69393 723.50554,142.45902 722.0698,140.02341 720.49787,137.28146 717.55711,132.15181 709.05428,122.37922 708.2402,123.19329 707.9887,123.4448 709.60715,125.81423 711.83676,128.4587 714.06637,131.10317 717.24893,135.96003 718.90912,139.25172 L 721.92764,145.23661 719.10702,150.25172 C 717.22288,153.60175 713.99777,156.98761 709.3932,160.44969 705.60194,163.30026 701.33114,166.54014 699.90254,167.64942 697.51267,169.5051 696.91327,169.56256 692.40254,168.3684 683.11807,165.91046 667,160.34011 667,159.58937 667,157.68334 672.30031,156.49696 685.24931,155.50462 702.11384,154.2122 703.94914,153.23816 704.60169,145.23384 704.8244,142.50198 704.72545,140.94183 704.3818,141.76683 700.73598,150.51934 697.34136,152.76683 687.76736,152.76683 L 682.57518,152.76683 687.24148,148.01683 C 695.1353,139.98142 696.92213,132.76069 692.5,126.76683 688.06378,120.75387 689.82011,111.59705 696.97204,103.45145 700.70688,99.197714 699.67232,98.406374 695.75017,102.51683 691.94054,106.50937 688.02113,115.58494 688.00977,120.4401 688.00274,123.44238 688.70149,125.44705 690.5,127.58446 693.87865,131.59976 693.75682,136.18188 690.1189,141.91829 686.45248,147.69964 682.76883,150.2966 674.83819,152.69116 662.54817,156.40198 657.32576,157.05476 650.39318,155.74668 646.87693,155.08321 644,154.19559 644,153.77418 644,151.75179 652.28863,144.8603 658.89475,141.39011 674.63933,133.11949 677.31441,128.35583 674.52776,113.55154 672.80483,104.39831 673.15438,95.987474 675.53703,89.266834 676.16232,87.503104 676.04939,87.530144 674.58113,89.495714 671.99836,92.953284 670.44115,107.17851 671.76854,115.18906 673.46148,125.4056 672.57038,126.95807 661.95233,132.29077 L 653.13335,136.71993 653.67995,133.35162 C 654.52193,128.16314 652.5002,123.73733 646.75428,118.19044 643.86442,115.4007 639.74622,110.22662 637.60272,106.6925 631.53319,96.685324 626,91.713454 626,96.266834 626,98.507524 624.56445,98.096534 621.10576,94.865624 617.31574,91.325224 617.15274,88.368534 620.3956,81.983594 623.422,76.024834 627.08315,72.068624 631.24507,70.259774 633.75777,69.167704 634.02114,68.836194 632.40004,68.805974 628.69602,68.736934 622.61664,74.132704 619.22151,80.502624 613.89654,90.493284 615.10825,95.697084 623.81961,100.24968 630.06774,103.51498 632.09412,105.34243 636.03605,111.26683 637.86582,114.01683 640.85625,118.03533 642.68145,120.19683 647.22895,125.58222 647.24942,130.69896 642.75,137.33179 640.9625,139.96683 637.90238,143.39863 635.94974,144.95802 631.96464,148.14051 622.8867,151.76683 618.90489,151.76683 616.21947,151.76683 605.32327,157.0716 603.50872,159.26239 602.12385,160.93441 594.51863,163.76683 591.41402,163.76683 590.01399,163.76683 588.1106,164.17219 587.18426,164.66762 585.69368,165.46483 585.5,164.88925 585.5,159.66244 L 585.5,153.75646 593.5,148.51165 C 602.65649,142.50864 606.93133,136.99804 609.86301,127.4185 612.24799,119.62537 613.58556,107.76683 612.07959,107.76683 611.46851,107.76683 611,109.69833 611,112.21761 611,117.7906 609.28047,125.9467 606.96833,131.34072 604.25831,137.66293 599.33992,142.57051 592.01881,146.25736 L 585.36945,149.60592 584.06198,142.24743 C 582.42936,133.05896 582.96372,130.22223 588.5477,118.43432 599.2958,95.744874 600.72138,71.428504 592.54412,50.266834 588.20277,39.031994 587.9052,41.272974 592.13748,53.329244 595.05621,61.643684 595.27532,63.208084 595.28007,75.766834 595.28688,93.803884 593.59518,101.22659 586.16369,115.76683 582.931,122.09183 579.98766,129.20259 579.62295,131.56852 579.25476,133.95701 579.67349,141.4045 580.56444,148.31372 582.15129,160.61951 582.14576,160.79492 580.06505,164.16158 578.13487,167.28467 577.32243,167.67954 570.23053,168.94133 563.94476,170.0597 562.03277,170.07963 560,169.04795 556.43414,167.23821 555.27159,167.43927 552.78842,170.29517 551.56588,171.70121 549.95711,172.58062 549.16413,172.27632 548.37987,171.97537 546.25213,172.86262 544.43582,174.24799 542.61951,175.63335 540.85877,176.76683 540.52305,176.76683 540.18734,176.76683 535.66545,178.3576 530.47442,180.30187 521.30894,183.73474 520.94451,183.7895 517.86408,182.19655 515.90747,181.18474 512.45699,180.58765 508.85922,180.6383 503.4188,180.71488 502.98361,180.54972 502.38959,178.18294 501.9849,176.57054 502.8028,172.506 504.63308,167.03391 L 507.51344,158.42234 515.00672,156.09411 C 519.12802,154.81358 525.60288,153.10167 529.39529,152.28986 537.70165,150.51179 539.65186,148.93273 540.31539,143.44802 541.90214,130.33182 543.53731,127.83416 554.20865,122.22653 560.39519,118.97559 561.4607,117.97395 563.58443,113.4128 565.28605,109.75822 565.98329,106.49029 565.99023,102.13698 L 566,96.007124 571.49382,91.859244 C 577.82488,87.079254 580.37977,82.701874 581.97585,73.900004 582.6,70.458054 583.46143,66.693694 583.89014,65.534774 584.70354,63.335944 581.41773,56.188334 578.46818,53.740424 576.42166,52.041964 576.61773,52.830964 579.54263,58.064184 581.9711,62.409204 582.03422,62.919924 580.94847,69.440134 579.37273,78.902904 576.80576,83.849134 571.48905,87.667314 L 567,90.891104 566.97804,82.078974 C 566.93813,66.064344 562.09261,60.256684 544.5,55.137624 542.3536,54.513064 540.84933,52.984594 539.21318,49.765764 537.23302,45.870114 536.94778,43.906224 537.08606,35.120164 537.17389,29.539494 536.95949,24.510304 536.60961,23.944184 535.93459,22.851984 538.25122,15.172984 540.68847,10.423904 541.49092,8.8602941 541.95855,7.3920541 541.72765,7.1611541 541.49675,6.9302541 539.86156,9.8790541 538.0939,13.714054 533.85617,22.907924 532.61768,31.202014 533.83217,42.254554 534.69984,50.150874 535.09739,51.274844 538.14398,54.445164 541.87164,58.324204 545.95741,60.766834 548.71821,60.766834 551.95862,60.766834 557.73261,65.583034 559.92721,70.116484 561.99896,74.396144 562.03242,75.052984 560.96055,90.403084 560.2304,100.8594 559.30548,107.42158 558.24713,109.65451 556.76293,112.78589 551.37838,116.90116 542.19714,121.92108 537.9412,124.24806 536.08397,127.55241 535.20142,134.36777 534.4871,139.88391 534.27726,140.24757 531.96876,139.97017 530.61094,139.80701 525.7361,140.16811 521.13578,140.77261 516.53545,141.37712 512.5585,141.65866 512.29809,141.39826 512.03769,141.13785 514.52247,135.76104 517.81983,129.44978 525.14976,115.42006 526.73664,108.91447 525.05664,99.781594 523.8854,93.414454 517.40444,76.766834 516.09694,76.766834 515.73079,76.766834 514.66517,75.470034 513.7289,73.885044 512.44308,71.708324 512.00155,68.462434 511.92424,60.618224 511.83186,51.244904 512.10266,47.816704 513.57135,39.766834 513.90179,37.955724 513.77652,37.680164 513.11675,38.766834 511.33608,41.699664 509.72678,55.906264 510.2412,64.151704 510.64801,70.672344 511.3759,73.682694 513.56186,77.884894 515.10166,80.844964 517.44259,85.364134 518.76393,87.927504 522.77915,95.716994 522.74454,99.284154 518.5658,108.34676 516.15337,113.5787 513.15819,118.04872 509.7411,121.51683 506.89607,124.40433 504.227,126.76683 503.80984,126.76683 503.39268,126.76683 502.34673,125.40422 501.48551,123.73881 500.62429,122.0734 495.43774,115.99198 489.95983,110.22454 478.50745,98.166854 478.30879,97.521324 482.99921,87.606624 486.3006,80.628084 486.50027,78.364234 484.66089,68.766834 L 483.41514,62.266834 483.45757,72.266834 C 483.49787,81.765884 483.33719,82.548454 480.25,87.888564 478.11576,91.580284 477,94.835314 477,97.369834 477,100.87519 477.68328,101.87351 484.4454,108.24811 492.05469,115.42133 499.43984,125.24614 498.43937,126.86493 498.1328,127.36097 498.32553,127.76683 498.86766,127.76683 500.79633,127.76683 500.60934,131.3333 498.44822,135.76683 497.24178,138.24183 494.58749,146.56683 492.5498,154.26683 490.51211,161.96683 488.66893,168.82933 488.45384,169.51683 487.90866,171.2594 484.33575,171.08417 483.64378,169.28092 483.20004,168.12455 482.01198,167.93341 478.28679,168.41907 475.65406,168.7623 472.9375,169.48606 472.25,170.02743 471.29366,170.78048 471,170.05854 471,166.95438 471,161.51663 472.34468,158.30205 477.31936,151.84732 481.19461,146.81912 481.49179,145.99259 481.38755,140.5324 481.23455,132.51806 479.5,131.17609 479.5,139.07206 479.5,144.5605 479.10093,145.82033 476,150.12117 469.39885,159.27664 469.01068,160.1233 469.00526,165.37754 L 469,170.48825 463.88546,171.09399 C 459.46535,171.61749 455.15327,170.59722 452.29539,168.35171 452.18285,168.26329 452.50733,165.24952 453.01646,161.65445 453.74566,156.50536 454.85854,153.75135 458.25961,148.67948 469.21445,132.34293 469.29099,116.25706 458.49915,98.335434 456.57462,95.139434 455,91.999624 455,91.358084 455,90.716544 457.24698,87.978454 459.9933,85.273434 466.07558,79.282614 467.00076,75.817644 464.2054,69.498264 463.11708,67.037934 461.72564,64.715304 461.11332,64.336864 459.5065,63.343794 459.73258,64.279894 461.99626,67.992664 465.37079,73.527404 464.72167,75.615884 457.54749,82.306174 L 451.07134,88.345514 447.60107,84.193954 C 445.69242,81.910594 440.72391,77.478294 436.55994,74.344404 426.3027,66.624584 424.01767,61.815654 426.02113,52.165074 427.40276,45.509754 433.8814,35.535464 439.03998,32.121684 441.11755,30.746804 443.42098,28.192014 444.1587,26.444374 445.75482,22.663174 445.84729,3.1032741 444.28226,0.3067241 443.54806,-1.0052159 443.39885,1.8229841 443.76477,10.115024 Z M 417.19495,23.266834 C 417.21533,24.916834 417.43945,25.470774 417.69299,24.497804 417.94653,23.524834 417.92986,22.174834 417.65594,21.497804 417.38201,20.820774 417.17457,21.616834 417.19495,23.266834 Z M 351.07895,39.350164 C 351.12693,40.515114 351.36389,40.752064 351.68311,39.954334 351.97198,39.232464 351.93646,38.369964 351.60417,38.037664 351.27188,37.705374 351.03553,38.296004 351.07895,39.350164 Z M 1618.6667,60.433504 C 1617.5012,61.598934 1617.9495,66.813864 1619.25,67.219354 1622.1489,68.123244 1629.9198,68.446054 1629.4228,67.641954 1629.1253,67.160634 1626.8694,66.766834 1624.4096,66.766834 1619.4562,66.766834 1617.8057,64.908794 1619.8507,61.634364 1620.9541,59.867534 1620.0994,59.000724 1618.6667,60.433504 Z M 423.07056,101.40089 C 421.55435,107.42231 422.16144,107.8654 424.2408,102.255 425.14593,99.812844 425.51404,97.584534 425.05883,97.303194 424.60362,97.021854 423.7089,98.865824 423.07056,101.40089 Z"
></path>

</svg>
