<svg xmlns="http://www.w3.org/2000/svg" id="svg1">
  <g id="tree">
  <path class="tree-leaf-path"
          d="M 786.98242,0.00585938 C 743.99039,0.53271367 702.27208,32.347502 670.30859,24.191406 640.66723,31.607373 570.24666,-24.867919 547.01758,28.757812 539.27577,35.438446 481.96323,14.489563 476.94336,80.90625 505.15665,107.63958 454.06147,100.41282 485.41797,117.67383 502.72261,132.30965 422.12352,138.8754 403.4668,157.27148 382.56706,159.32754 381.49064,172.31227 352.74219,172.96484 306.5312,167.10386 365.3579,245.43196 372.73242,276.78711 346.94524,239.76965 293.18622,247.74023 307.70898,306.24414 292.05942,326.00824 334.42218,330.53733 343.73047,360.5957 322.60161,413.12675 270.22716,350.45787 237.35547,374.67773 219.36373,382.81009 223.93665,382.47038 215.89844,390.33984 206.02081,416.73401 235.93447,465.63718 224.55664,464.33398 173.62707,481.93722 259.04289,544.05966 291.70117,525.91602 345.86244,516.94075 397.27903,484.40387 453.17188,499.75781 506.29591,509.53643 559.45927,466.64727 611.17383,471.34961 611.10117,470.18717 611.04272,469.00936 611.01758,467.79688 610.73217,454.03395 611.6753,439.39662 620.00977,427.65625 621.82422,425.10031 623.84575,422.59809 626.10547,420.36914 631.33397,411.32579 637.12961,401.24849 646.78516,399.51172 650.87625,398.77585 654.50055,398.58014 657.76172,398.80664 659.00724,397.10551 660.36835,395.6058 661.81836,394.30469 662.85902,383.00808 669.89509,372.18195 685.54883,363.52148 705.59327,400.16084 753.11443,464.22751 801.39258,421.9668 855.47365,428.08011 809.48231,446.05977 779.05664,453.81055 794.47553,470.35737 817.44398,465.61663 834.11914,469.12305 854.89702,461.63815 876.63962,450.7158 896.48047,450.22852 909.88191,450.12377 921.90837,454.13053 930.07617,464.83398 918.81458,545.46427 999.74131,532.62037 1032.041,575.41602 1000.127,574.36188 1012.3878,566.96008 1012.8574,588.66211 1021.1727,591.22494 1019.8516,597.94707 1023.9395,604.1875 1062.8652,610.40642 1102.7521,611.04642 1141.4609,622.0918 1170.1608,625.83069 1286.6648,663.62018 1264.2031,608.35352 1295.0405,607.69163 1278.8433,575.87971 1273.7422,554.23047 1263.2997,533.90395 1259.0393,514.40881 1248.7852,539.66992 1245.7822,485.54775 1230.2133,477.28011 1210.9961,495.70117 1195.2979,542.25992 1191.3931,456.15836 1155.6895,482.67773 1124.6573,531.08782 1138.2915,426.76491 1123.3438,445.33984 1126.6916,421.33632 1077.4673,408.59364 1113.1836,389.17969 1110.0897,316.83416 1066.1655,338.85566 1044.6035,306.37891 1019.303,311.77492 1007.0082,278.10726 990.85742,222.51758 958.25293,203.74501 946.81521,127.8595 938.93359,136.52734 940.03712,143.01555 915.97332,88.959118 886.08984,105.56641 807.13979,85.769693 851.49304,3.7554765 802.86523,1.359375 797.56283,0.3483182 792.26214,-0.05884203 786.98242,0.00585938 Z M 582.77539,241.24609 C 617.43991,241.72046 653.44575,263.18604 621.26953,314.11133 596.54053,343.43481 610.36276,320.45678 607.36719,305.27148 594.77428,287.39371 584.93864,269.46 546.27148,288.46484 518.8335,258.88003 550.21174,240.80047 582.77539,241.24609 Z M 449.17578,368.03516 C 450.15045,368.05115 451.08077,368.08927 451.95703,368.15039 469.11499,373.98648 420.15344,410.06346 406.5625,398.07422 344.37771,388.21611 418.96091,367.53961 449.17578,368.03516 Z M 562.02344,592.33594 C 524.87259,593.13634 526.61007,706.79714 488.98242,651.61328 465.16512,631.75029 405.63306,623.49519 357.09961,620.45117 331.42227,606.59452 314.06984,641.94098 317.06836,681.25781 284.9514,697.72312 294.13004,710.45625 305.6543,738.38867 342.88,777.91637 288.42372,741.57282 287.85156,789.68945 290.07978,735.92088 242.8826,787.67981 223.40234,778.88477 200.28617,768.05363 169.43481,791.71239 144.78711,786.7207 97.289601,788.69031 171.04901,864.55271 127.01367,852.43359 157.00378,933.67913 86.239112,812.08376 81.150391,849.78516 39.802954,818.50876 61.699667,886.75625 35.871094,865.82031 21.981037,841.56762 -21.133787,908.07172 12.613281,955.59375 25.791069,983.0235 57.14635,966.78628 80.712956,958.56528 122.48502,922.20365 165.89898,900.9741 251.0148,889.68029 292.28719,882.30768 313.20482,869.66209 383.70896,844.53446 454.21492,808.82213 453.75219,831.79019 499.07031,811.81836 528.16247,821.70767 563.5817,781.29985 607.44617,775.99451 611.36744,755.24219 641.32319,753.42528 612.30664,740.41602 621.2799,701.37771 673.74521,723.59072 685.58398,713.68359 701.90002,699.43496 704.33461,704.87935 709.39844,691.80469 718.18984,667.71347 697.67046,631.00106 688.80664,643.98438 680.86147,637.3795 616.58954,578.77938 574.88867,596.02344 570.12653,593.37883 565.86663,592.25314 562.02344,592.33594 Z M 874.92188,663.13281 C 862.83729,663.1579 854.16699,673.53459 852.97461,705.03516 881.25672,764.72284 936.61351,797.38165 987.10547,818.80469 1009.3481,837.25097 1001.5924,848.6047 986.71709,846.6782 989.28075,848.67475 994.88271,845.68398 996.60352,846.47852 999.83548,847.56271 1002.5515,848.96224 1005.7812,848.96484 1031.0676,854.48226 1026.2355,856.78564 1037.2528,862.69131 1040.0698,855.21891 1037.7093,842.74181 1037.4316,834.55859 1045.9375,812.29925 1061.16,800.8641 1074.7891,800.58984 1091.2381,800.25884 1101.1292,828.89658 1102.5664,848.96094 1094.8999,856.47324 1129.061,865.10528 1117.0737,871.47517 1127.3327,876.92402 1132.2016,880.1745 1136.9996,883.40781 1142.0109,887.17262 1153.3976,889.20398 1158.5859,892.72461 1164.1826,896.98931 1164.9609,890.78975 1171.3679,890.39502 1206.5464,872.24564 1297.4388,956.58624 1281.0117,918.37891 1315.2068,938.86681 1334.2972,851.65665 1292.9336,839.76367 1324.0641,817.31244 1284.9644,812.81194 1280.2168,809.4375 1246.1674,867.24771 1255.2141,827.29146 1246.5254,800.94922 1220.9821,757.63713 1170.864,768.12125 1110.0977,761.89844 1113.3356,647.8744 1005.097,728.87958 953.17969,701.20508 933.5056,700.76313 897.99244,663.08491 874.92188,663.13281 Z M 556.125,745.8457 C 569.31969,745.88712 574.59412,751.57364 551.99805,766.75195 542.78051,772.02915 532.98604,775.45202 523.06055,777.62695 483.91355,763.63354 532.60401,745.77187 556.125,745.8457 Z M 331.45898,815.12109 C 355.67946,814.95908 378.82202,835.53713 334.03906,845.98828 322.4247,847.57962 314.40332,863.06678 302.68945,860.60156 295.53558,826.40053 313.78458,815.23932 331.45898,815.12109 Z M 1178.8145,861.85352 C 1187.5517,861.98878 1195.5079,866.71112 1197.5098,880.2793 L 1184.9961,882.31055 1172.334,881.52344 C 1133.0474,886.94687 1158.121,861.53319 1178.8145,861.85352 Z M 815.52539,947.67969 C 807.53826,947.76238 799.56714,950.18098 793.58398,957.95898 812.16479,1001.9724 753.3647,940.94681 754.66211,999.38867 706.64378,1032.4568 778.0411,1078.1759 819.02539,1069 859.41245,1061.5601 865.78737,1108.019 849.10669,1128.9817 858.35827,1133.7457 868.77814,1123.7148 874.90234,1129.4102 877.03409,1131.5029 878.6485,1133.4556 879.9043,1135.334 881.54253,1136.372 883.03644,1137.4906 884.37305,1138.6855 890.74496,1118.446 901.38378,1109.7374 912.0918,1109.498 994.22554,1118.4924 1030.8915,1134.799 1063.8535,1123.7363 1095.5672,1154.3631 1160.7804,1074.7636 1112.6055,1077.1152 1152.8964,1035.3821 1116.9908,1013.0013 1098.5977,1022.2363 1083.369,1040.9633 1012.2036,1064.6867 1002.2881,1039.2678 939.26172,1030.239 945.65036,965.10781 876.75781,999.40625 872.38758,964.78901 862.99467,968.95771 844.48828,952.8457 838.90621,952.42757 827.19889,947.55883 815.52539,947.67969 Z M 1111.0645,1141.6016 C 1097.9751,1141.8066 1084.5577,1146.5659 1071.2539,1157.9961 1040.3501,1167.4598 1061.2994,1182.483 1055.0605,1196.9316 1054.8746,1197.3067 1054.6692,1197.667 1054.4512,1198.0176 1033.5098,1257.1196 957.45232,1130.4207 944.7168,1179.3086 938.84342,1181.3967 930.32202,1182 921.43359,1180.7852 L 921.64062,1185.2676 C 921.23722,1186.4817 920.49972,1188.7774 919.86523,1190.7422 921.7304,1193.0267 919.15361,1197.295 918.26562,1200.6875 920.01573,1201.8181 921.78137,1203.0586 923.5625,1204.418 947.76056,1210.7371 1046.454,1259.5316 994.26758,1279.7949 930.84739,1268.563 985.98445,1292.9081 1016.873,1297.7109 1080.3396,1330.585 1124.6759,1231.0241 1185.3027,1269.6777 1217.2921,1310.3419 1265.5781,1244.0047 1226.1328,1235.4121 1264.4528,1205.8728 1213.703,1213.3148 1212.9707,1191.3984 1187.7961,1206.2072 1190.4039,1147.877 1171.7285,1168.7129 1153.7837,1153.5669 1132.88,1141.2598 1111.0645,1141.6016 Z M 1066.9551,1260.0859 C 1078.1271,1259.914 1084.8371,1266.0267 1067.2363,1283.8281 L 1057.457,1286.2578 C 1021.2407,1275.9174 1049.5268,1260.3541 1066.9551,1260.0859 Z"
       ></path>
  <path  class="tree-trunk-outline"
                d="M 59.696288,1528.5631 C 58.44909,1526.9608 66.714016,1497.2175 100.19482,1456.7001 105.91432,1449.7785 114.80576,1442.1528 119.95359,1439.7543 135.7046,1432.4151 155.74071,1419.2987 171.30061,1406.1406 191.27386,1389.2503 211.6218,1375.7496 221.05888,1373.1263 230.90033,1370.3904 235.58849,1363.6157 238.9843,1347.2229 241.71642,1334.0338 254.79304,1307.8626 258.65097,1307.8626 259.81128,1307.8626 264.94342,1304.2158 270.05568,1299.7586 275.16796,1295.3015 284.49234,1289.4502 290.77657,1286.7559 314.78702,1276.4615 332.62319,1263.5412 337.86435,1252.6459 343.50493,1240.9204 346.85461,1214.3342 350.39501,1153.1903 351.63233,1131.8216 353.95487,1111.1167 355.55622,1107.1796 357.15759,1103.2424 364.03075,1091.1474 370.82994,1080.3019 380.54078,1064.8119 387.30099,1057.8363 402.3507,1047.7771 L 421.50929,1034.9714 455.23174,1034.9714 488.95419,1034.9714 495.78059,1025.3692 C 503.50849,1014.4988 515.24009,1005.8009 562.77112,975.70142 602.88075,950.3016 612.29926,942.61971 617.45399,931.10158 623.65231,917.25182 625.19539,896.72236 620.84978,885.92571 615.81096,873.40719 616.01497,841.39514 621.22273,827.36409 623.73266,820.60168 628.08075,815.04845 632.36955,813.12763 641.09815,809.21841 644.08222,800.62477 638.52424,795.40334 632.0395,789.31133 585.21427,792.43105 543.01211,801.76679 530.10716,804.62157 507.753,808.09881 493.33627,809.49405 471.00178,811.6555 465.71014,813.26503 457.56764,820.37363 452.31164,824.96212 445.72423,828.71638 442.92895,828.71638 432.63331,828.71638 408.29084,838.54967 404.58616,844.20518 402.14974,847.92465 395.63972,850.85876 386.60647,852.30878 376.65263,853.90657 370.81705,856.75088 366.96229,861.88346 363.02817,867.1217 357.48727,869.74844 347.3551,871.17868 339.58724,872.27522 325.69435,876.89861 316.48203,881.45304 307.2697,886.00736 296.95375,889.62772 293.55771,889.49815 280.13714,888.98621 268.56327,900.34029 276.2688,906.45866 279.18931,908.7776 279.61714,920.73785 276.77956,920.73785 275.70204,920.73785 273.75704,916.09711 272.45733,910.4251 270.12464,900.2452 269.88733,900.10516 254.04019,899.55271 234.82454,898.88317 197.00992,904.35602 161.42098,912.95823 151.71802,915.30351 151.61878,915.23401 155.86383,909.06593 158.24106,905.61185 160.18606,901.28493 160.18606,899.45053 160.18606,897.61624 166.87119,895.49414 175.04191,894.7348 191.78781,893.17858 197.34014,888.88499 192.43202,881.28698 189.82581,877.25252 190.37004,875.85813 195.78896,872.68604 201.31405,869.45175 202.73898,869.74812 205.56863,874.71982 208.09148,879.1525 212.64355,880.7102 224.66846,881.25599 238.04967,881.86312 242.41554,880.58222 253.31175,872.8502 L 266.16747,863.7278 269.94646,870.65934 273.72547,877.59099 289.19873,870.71667 C 369.47071,835.05444 377.53271,830.9213 377.53271,825.43206 377.53271,823.74818 383.57997,822.3705 390.97105,822.3705 398.36223,822.3705 405.09635,820.94258 405.93593,819.19734 406.77551,817.45211 410.72142,816.02419 414.70479,816.02419 419.17817,816.02419 426.27708,811.77788 433.27201,804.91815 439.50072,798.80983 446.12715,793.81211 447.99748,793.81211 449.86781,793.81211 456.39183,787.30429 462.49531,779.35027 474.20641,764.08839 475.1256,755.73426 465.09375,755.73426 461.92321,755.73426 458.54265,754.09933 457.58139,752.10103 456.34062,749.52183 457.9107,749.09996 462.99273,750.64681 466.93033,751.84528 475.43121,753.66191 481.88368,754.68376 488.33615,755.70562 493.61544,757.33893 493.61544,758.31334 493.61544,759.28771 491.22611,763.35256 488.30577,767.34626 481.90352,776.10172 482.88512,776.779 507.21186,780.39097 527.16121,783.35298 532.53074,782.11238 557.83142,768.69565 570.82479,761.80536 579.30484,754.78885 586.23465,745.19447 591.66831,737.6715 599.44832,728.76008 603.52357,725.39136 L 610.9331,719.26638 604.03886,729.96689 C 600.24699,735.8522 597.5048,742.05565 597.94501,743.75237 598.38629,745.45429 611.44255,747.15437 627.06786,747.54458 646.0804,748.01939 657.16951,749.69445 660.80307,752.6405 665.37006,756.34338 668.26455,756.36572 679.32691,752.78361 705.0939,744.43999 740.30846,715.23939 745.61196,697.81878 747.33789,692.14975 752.03644,677.64291 756.05324,665.58137 762.88491,645.06747 763.1468,642.81342 760.10823,630.67668 756.01388,614.32313 727.28028,576.11918 716.9229,573.25805 705.7163,570.16225 688.20181,559.355 680.51425,550.79221 673.46778,542.94351 661.56493,510.4203 661.56493,499.01532 661.56493,489.99042 650.28457,474.26894 640.97762,470.32271 628.80696,465.16224 552.46824,470.85114 538.07266,477.99136 520.79963,486.55882 488.03376,492.70715 452.86299,493.98047 420.07563,495.16752 404.77082,492.18444 399.17069,483.51528 396.58921,479.51908 397.54438,479.16245 405.99208,480.96848 411.39486,482.12351 433.24336,483.35967 454.5443,483.71545 492.2539,484.34532 493.4377,484.16381 499.5215,476.82088 504.49009,470.82391 507.52734,469.64584 514.35144,471.06859 519.0714,472.05258 528.80144,470.869 535.97395,468.43804 543.14638,466.00722 559.48614,463.1464 572.28455,462.08066 593.41679,460.32096 604.75849,456.32218 604.75849,450.63125 604.75849,449.4615 599.76133,445.39653 593.65382,441.59798 582.58874,434.71617 572.6505,421.9812 572.6505,414.68408 572.6505,409.07931 564.83788,401.50099 558.65915,401.11241 555.71839,400.92741 548.27839,398.58039 542.12576,395.8967 535.97313,393.213 524.18316,389.6194 515.92589,387.91095 507.66862,386.20249 497.63874,381.80954 493.63718,378.14887 485.43252,370.64293 456.66548,361.91295 446.9268,363.97353 437.85596,365.89281 389.88193,368.28334 389.88193,366.81604 389.88193,363.5726 407.06407,354.7619 415.81531,353.51786 439.87811,350.09717 497.51607,351.26337 504.99723,355.32231 509.2196,357.61316 518.11104,360.55112 524.756,361.8511 532.0618,363.28039 536.59364,365.71055 536.22028,367.99868 535.42993,372.84453 538.71153,372.86569 542.46849,368.03887 544.6506,365.23539 546.79056,365.18896 550.98946,367.85419 554.07331,369.81155 560.08886,372.28982 564.35725,373.36142 571.06601,375.0457 572.8662,373.95967 577.6386,365.34899 581.43286,358.50313 584.60562,355.87411 587.78431,356.94203 590.75636,357.94052 592.40926,356.8278 592.40926,353.82837 592.40926,348.56656 602.97403,336.38314 618.52104,323.7159 626.17567,317.47913 629.4506,312.36817 630.75707,304.62009 631.73817,298.80125 634.73863,290.04627 637.42466,285.16456 L 642.30837,276.28874 635.8932,263.83424 C 628.42183,249.32935 621.42995,244.27591 601.05372,238.65359 592.90323,236.40468 582.66556,233.44092 578.3034,232.06749 573.94124,230.69405 563.5119,230.36953 555.12719,231.34633 542.73598,232.7899 540.09719,232.29013 541.03063,228.67673 543.12382,220.57386 575.99524,218.2757 596.92323,224.76905 614.96348,230.36643 615.07396,230.36082 631.50107,223.01274 640.56491,218.95834 652.35743,212.93309 657.70662,209.62333 669.02379,202.62084 676.38401,201.87499 676.38401,207.73057 676.38401,213.48645 671.25035,219.47124 666.31305,219.47124 657.82032,219.47124 655.85737,227.55621 660.23715,244.49736 665.89704,266.38997 668.05832,268.01834 683.59052,262.09231 693.37267,258.36011 697.33595,258.04422 699.9125,260.79148 701.78398,262.78701 705.43713,263.5545 708.03047,262.49702 710.87721,261.33621 720.10875,265.00441 731.32761,271.75434 741.54767,277.90331 751.16434,282.93432 752.69787,282.93432 754.2314,282.93432 757.41601,284.27599 759.7748,285.91581 765.74013,290.06284 778.00761,293.60659 783.35211,292.72664 785.81035,292.32196 789.45534,293.73274 791.45221,295.86194 794.22725,298.82084 796.54816,298.87539 801.30056,296.09358 804.72031,294.09164 809.32344,292.45378 811.52975,292.45378 813.73615,292.45378 817.46948,290.21191 819.82613,287.4719 825.00795,281.447 860.06403,277.12773 862.51024,282.21277 863.96391,285.23473 831.1763,305.1464 824.74647,305.1464 820.63113,305.1464 821.64328,313.75932 826.01169,315.91294 828.16037,316.9723 835.69307,317.83901 842.75099,317.83901 849.80898,317.83901 857.77596,319.79847 860.45541,322.19337 867.70746,328.67524 888.41719,334.6434 901.96076,334.15445 910.43035,333.84856 913.60138,334.85878 912.88159,337.63318 910.80741,345.6275 897.33729,347.34985 881.01482,341.70786 830.98242,324.41376 827.8975,324.06303 824.57473,335.29136 822.02034,343.92297 816.92365,345.50355 811.78448,339.2578 805.13046,331.17118 789.05992,326.66067 768.07167,326.98899 737.3696,327.4693 730.92931,328.93544 717.13646,338.58474 710.34438,343.33638 692.9244,354.92087 678.42533,364.328 663.92635,373.73517 651.58915,383.18761 651.00939,385.33346 649.49431,390.94099 655.99691,413.31392 661.33977,420.87618 663.84098,424.41634 667.16975,430.50879 668.73712,434.41495 670.30448,438.32113 674.61123,442.35478 678.30769,443.37863 682.00414,444.4025 691.14133,447.93414 698.61262,451.22679 724.74687,462.74433 741.49687,465.12648 764.90195,460.6543 776.66657,458.40637 792.24676,453.93571 799.52474,450.71953 806.80263,447.50335 819.86194,443.93676 828.54542,442.79375 844.8702,440.64499 849.03436,435.52809 839.68813,429.10179 834.38084,425.45256 816.717,417.85955 806.66836,414.90786 799.46439,412.79174 797.66437,407.57866 803.196,404.8515 805.02187,403.95138 818.46623,408.35174 833.07248,414.63017 L 859.62925,426.04544 894.58621,424.48786 C 940.44021,422.44473 959.58505,419.73029 962.75534,414.82266 964.58624,411.98833 970.6614,411.25105 983.47768,412.30777 994.44881,413.21233 1003.6581,412.39451 1006.7965,410.23647 1010.0827,407.97693 1012.5271,407.80082 1013.4676,409.75584 1015.3617,413.69328 999.04437,422.55307 989.89853,422.55307 986.06937,422.55307 982.2495,423.98099 981.40992,425.72623 980.57034,427.47146 976.71878,428.89938 972.85092,428.89938 967.08786,428.89938 966.04633,430.01941 967.08128,435.1041 968.27759,440.98116 966.92897,441.30759 941.53418,441.28598 924.11091,441.27011 910.40038,442.99748 902.37487,446.21668 889.08743,451.5465 860.82894,457.95325 846.80334,458.81581 842.04889,459.10838 829.35981,465.34791 818.60545,472.6818 807.851,480.01569 797.63588,486.01615 795.9051,486.01615 791.05556,486.01615 789.23717,492.12263 792.55656,497.26118 796.34391,503.12415 846.28369,503.73352 862.63102,498.11624 872.17994,494.835 874.9637,495.14118 884.26876,500.4961 890.14213,503.87614 899.27085,512.01795 904.55475,518.58895 909.83866,525.15998 917.06691,531.43686 920.61756,532.53759 924.16821,533.63833 929.8519,536.9372 933.24793,539.86847 936.64397,542.79973 943.31256,547.12944 948.06701,549.49007 952.82146,551.85071 958.90378,555.66982 961.58324,557.97699 964.26269,560.28419 971.05271,562.17187 976.6721,562.17187 983.29227,562.17187 991.77751,565.5232 1000.7743,571.69133 1014.7658,581.28365 1036.9814,585.10908 1036.9814,577.92601 1036.9814,569.7816 1027.7823,558.09694 1015.4871,550.62406 1008.1178,546.14506 1002.6067,541.81428 1003.2404,541.00017 1005.1441,538.55428 1024.4824,547.01044 1027.4338,551.57941 1028.9424,553.91478 1031.6938,555.82556 1033.5481,555.82556 1035.4024,555.82556 1039.7259,561.53724 1043.1561,568.51818 1046.915,576.1684 1051.2848,581.21079 1054.1556,581.21079 1056.7752,581.21079 1059.6054,582.63871 1060.445,584.38395 1061.2846,586.12918 1065.0178,587.5571 1068.7413,587.5571 1072.4646,587.5571 1076.5679,588.91486 1077.8595,590.57439 1079.2732,592.39058 1083.9176,592.51674 1089.5271,590.89139 1099.3344,588.04964 1108.607,589.63139 1108.607,594.14616 1108.607,595.61777 1113.3305,598.45527 1119.1038,600.45166 1124.8771,602.44805 1133.7135,606.26018 1138.7404,608.92306 1143.9704,611.69351 1150.3096,612.85009 1153.5595,611.62671 1164.6442,607.45392 1182.7023,606.0134 1182.7023,609.3019 1182.7023,611.08083 1187.148,615.74645 1192.5817,619.66996 1210.6595,632.72346 1201.9367,634.93201 1176.5277,623.73471 1171.0941,621.34018 1159.8009,619.36026 1151.4319,619.33484 1142.4305,619.30628 1129.8205,616.49576 1120.5588,612.45078 1107.3438,606.67923 1096.8138,605.28739 1053.0354,603.52552 1012.1992,601.88205 999.59292,600.34358 993.75915,596.29143 982.82605,588.69722 943.05833,568.51818 939.02523,568.51818 937.11053,568.51818 932.84774,566.24848 929.55239,563.47442 921.20694,556.44918 870.10543,558.06565 865.74113,565.49292 864.155,568.1921 859.2731,572.27725 854.89242,574.57103 844.81248,579.84894 827.04458,604.36663 827.04458,612.99783 827.04458,616.59682 829.41176,625.50288 832.30502,632.78905 836.81529,644.14732 837.7232,653.0669 838.67138,695.33242 839.38105,726.96175 841.03625,748.9157 843.29032,756.59178 845.22248,763.17172 846.80334,772.85498 846.80334,778.11014 846.80334,784.32413 848.31464,788.37209 851.12557,789.68733 853.5028,790.79961 859.05905,795.70786 863.47282,800.59462 871.20896,809.15971 872.1992,809.41017 890.97241,807.55018 909.27586,805.73682 910.95058,806.11443 918.8233,813.82911 934.92389,829.60666 958.02024,840.96307 981.91237,844.85007 1006.804,848.89955 1012.283,847.81306 1012.283,838.82764 1012.283,831.71501 1006.1583,824.04751 996.84193,819.49668 993.10876,817.67328 990.05438,814.71801 990.05438,812.92952 990.05438,808.42544 993.27045,808.84324 1004.9958,814.87075 1014.6476,819.83229 1015.3965,819.77941 1021.8148,813.68293 1025.5093,810.17363 1032.3782,806.24241 1037.079,804.94682 L 1045.6259,802.59138 1039.8927,810.54637 C 1034.2787,818.33594 1034.239,818.84586 1037.9857,835.05486 1040.7367,846.95631 1041.1011,853.31467 1039.2825,857.68051 1036.0055,865.54697 1037.7132,868.6996 1049.3998,876.35949 1061.4155,884.23494 1071.9617,884.32421 1089.2183,876.6969 1096.6393,873.41671 1108.7612,869.66943 1116.1559,868.3697 1134.9153,865.07248 1140.715,861.72184 1140.715,854.18105 1140.715,848.66822 1142.3156,847.75626 1151.9916,847.75626 1158.1938,847.75626 1165.5374,846.19602 1168.3108,844.28917 1171.9574,841.78174 1174.1003,841.78174 1176.0519,844.28917 1178.0035,846.79649 1176.9046,847.75626 1172.082,847.75626 1165.2342,847.75626 1162.5867,855.44989 1168.5007,858.16346 1173.9093,860.64508 1168.7428,864.00566 1155.1463,866.84955 1124.7425,873.20887 1120.3757,877.65213 1141.3324,880.90493 1148.4641,882.01183 1161.928,884.44416 1171.2521,886.31008 1180.5763,888.176 1192.802,888.75912 1198.4204,887.606 1206.1767,886.01392 1207.9459,886.3965 1205.7699,889.1949 1202.696,893.14823 1122.1604,896.79418 1056.7402,895.94166 1023.402,895.50694 1018.7942,894.67589 990.05438,883.9098 973.07419,877.549 949.95718,867.44896 938.68316,861.46534 926.4729,854.98481 910.99438,849.52931 900.40055,847.97235 890.61914,846.5347 874.47088,842.15511 864.51559,838.23965 841.65981,829.25064 811.64024,830.26012 796.14574,840.53871 790.69784,844.15272 779.85151,848.13524 772.04277,849.38864 761.90586,851.01583 755.28166,854.28481 748.88286,860.81802 743.95371,865.85064 738.57323,869.96834 736.92618,869.96834 735.27912,869.96834 729.34927,874.23295 723.74873,879.44528 709.48759,892.71774 702.99272,910.56927 701.79789,939.77772 701.16232,955.32131 698.81465,969.63012 695.03027,981.02873 691.84351,990.62752 687.23198,1004.7067 684.78239,1012.3158 682.33279,1019.9249 675.04148,1036.9077 668.57946,1050.0552 659.54806,1068.4304 657.36883,1075.2524 659.15815,1079.548 661.74935,1085.7683 681.97854,1102.633 691.33851,1106.376 694.66004,1107.7043 703.49056,1114.195 710.96184,1120.7998 718.43313,1127.4045 731.77029,1135.3393 740.59999,1138.4327 758.84482,1144.8245 797.93161,1146.8885 822.00618,1142.7314 837.33758,1140.084 838.52846,1139.2131 852.46398,1120.4569 869.51028,1097.5137 869.68926,1091.6007 853.92103,1072.3293 844.47214,1060.7813 844.34469,1060.3576 850.31777,1060.3576 861.00685,1060.3576 879.83843,1070.1089 887.67336,1079.7008 896.97043,1091.0828 911.01933,1092.8092 911.01933,1082.5697 911.01933,1073.5093 921.68371,1074.2494 931.63414,1084.0001 943.06022,1095.1969 950.55908,1098.0954 958.68537,1094.4559 964.19987,1091.9861 966.23173,1092.415 968.58237,1096.5451 971.59813,1101.8438 990.78348,1107.7755 1008.5782,1108.9111 1015.4953,1109.3521 1018.4576,1110.9686 1018.4576,1114.3012 1018.4576,1120.8734 1001.2473,1121.2668 977.70515,1115.233 967.51704,1112.6216 953.62416,1109.3401 946.83208,1107.9405 940.04001,1106.5409 931.5593,1103.9301 927.98609,1102.1386 916.9309,1096.5961 902.74954,1104.1484 893.53924,1120.4835 889.20005,1128.1792 882.52159,1137.8575 878.6981,1141.9909 874.87462,1146.1242 872.29849,1151.3547 872.97341,1153.6142 874.87503,1159.9809 891.61721,1170.9031 915.121,1181.1103 935.04392,1189.7622 937.0352,1190.0777 943.91009,1185.6715 953.14987,1179.7495 953.0067,1179.7303 953.0067,1186.8957 953.0067,1198.1147 961.53483,1201.8356 994.99407,1205.215 1012.6758,1207.001 1018.5957,1210.7422 1008.7591,1213.9141 1002.9116,1215.7996 999.63713,1222.1889 1004.5183,1222.1889 1005.6813,1222.1889 1011.803,1227.2606 1018.122,1233.4594 L 1029.611,1244.73 1051.2026,1240.0792 C 1077.2602,1234.4664 1112.3192,1235.5719 1130.8356,1242.5903 1138.3069,1245.4222 1148.5876,1248.604 1153.6816,1249.661 1158.7757,1250.7176 1162.9436,1253.0105 1162.9436,1254.7555 1162.9436,1259.8494 1110.4598,1252.6791 1092.1957,1245.0898 1081.9931,1240.8504 1052.1042,1248.5204 1046.8608,1256.7237 1044.8232,1259.9115 1041.0932,1263.454 1038.5719,1264.5959 1034.9815,1266.222 1034.3539,1268.5576 1035.677,1275.3688 1036.6061,1280.1519 1039.1201,1286.5656 1041.2636,1289.6214 1044.947,1294.8726 1044.2928,1295.0756 1029.3393,1293.32 1020.6376,1292.2982 1012.0582,1290.8791 1010.2741,1290.1662 1004.6647,1287.9247 1009.874,1282.2716 1016.703,1283.1894 1028.0434,1284.7133 1025.6287,1275.1967 1009.2881,1253.9659 990.96633,1230.1609 974.3912,1215.8425 965.15595,1215.8425 961.50272,1215.8425 953.10673,1213.7371 946.49824,1211.1636 939.88976,1208.5902 928.36999,1204.4963 920.89871,1202.0661 913.42743,1199.6358 898.76091,1193.5666 888.30646,1188.5787 L 869.29845,1179.5099 863.44887,1186.5702 C 859.87829,1190.8798 854.47073,1193.6305 849.56908,1193.6305 840.0265,1193.6305 831.98427,1198.5548 831.98427,1204.3976 831.98427,1210.7943 793.70776,1234.6782 783.20482,1234.8354 775.79562,1234.9464 781.26435,1228.2298 795.05975,1220.2759 803.27808,1215.5375 811.22357,1208.6748 812.71651,1205.0255 814.20953,1201.376 819.7112,1193.6382 824.94258,1187.8302 830.17396,1182.0222 834.45412,1174.5256 834.45412,1171.1711 834.45412,1166.0884 832.49907,1164.9795 822.72235,1164.5168 772.26036,1162.1282 745.75834,1159.7934 726.01341,1155.9969 710.39699,1152.9941 710.03326,1153.0948 697.95053,1163.7731 691.21773,1169.7232 683.97631,1174.5915 681.8585,1174.5915 679.74061,1174.5915 676.25319,1176.4797 674.10862,1178.7874 668.30094,1185.0369 650.19163,1191.6174 645.35838,1189.2346 637.74805,1185.4827 647.96152,1175.4087 661.86691,1172.9516 674.80602,1170.6653 680.53532,1163.978 681.87579,1149.5974 682.47843,1143.1352 680.66623,1141.5243 666.50463,1135.9316 657.67493,1132.4447 649.39477,1128.2932 648.10428,1126.7063 646.81378,1125.1194 643.26725,1123.8211 640.22308,1123.8211 637.17883,1123.8211 634.01348,1122.4185 633.18888,1120.7043 631.62934,1117.4625 615.14559,1129.199 605.62779,1140.328 601.1251,1145.593 595.77969,1146.722 570.29451,1147.7912 553.77915,1148.484 539.2013,1149.8967 537.89936,1150.9305 536.59742,1151.9639 533.30265,1158.4249 530.57767,1165.2873 526.51938,1175.5073 524.31793,1177.7647 518.40948,1177.7647 514.442,1177.7647 510.50902,1176.3368 509.66944,1174.5915 506.10973,1167.1916 501.08977,1172.756 492.60042,1193.5115 487.63043,1205.6626 482.59664,1216.3728 481.41424,1217.3116 480.23184,1218.2509 476.31755,1225.4789 472.71586,1233.375 466.56331,1246.863 466.09931,1250.7294 465.04361,1297.3074 L 463.91991,1346.8835 478.25605,1364.6583 C 492.89334,1382.8064 502.36421,1390.5455 547.95204,1421.6103 L 573.88542,1439.2819 598.24402,1439.8562 C 618.99649,1440.3449 623.56702,1441.4299 629.11709,1447.1824 636.46727,1454.8008 703.25107,1498.2465 707.61817,1498.2508 713.43457,1498.2572 747.91501,1521.2681 746.5035,1524.2022 542.25517,1497.6777 144.32341,1499.6065 59.696288,1528.5631 Z M 1054.2704,1295.5555 C 1054.2704,1291.6954 1065.7979,1286.4611 1078.3519,1284.6206 1090.5173,1282.8369 1090.1285,1287.1349 1077.5117,1293.9076 1068.2903,1298.8578 1054.2704,1299.8518 1054.2704,1295.5555 Z M 825.80966,1057.1839 C 821.09629,1054.5817 821.12461,1054.4466 826.42712,1054.2338 829.48355,1054.1111 831.98427,1055.4387 831.98427,1057.1839 831.98427,1058.9291 831.70683,1060.2567 831.36681,1060.134 831.02762,1060.0113 828.52649,1058.6838 825.80966,1057.1839 Z M 808.93238,1051.8953 C 805.92427,1048.0306 807.23049,1041.3181 810.99058,1041.3181 813.04879,1041.3181 814.69535,1044.1387 814.69535,1047.6644 814.69535,1053.9861 812.06365,1055.9182 808.93238,1051.8953 Z M 791.23182,1028.6255 C 792.0714,1026.8803 794.3598,1025.4524 796.31732,1025.4524 798.27475,1025.4524 799.87628,1026.8803 799.87628,1028.6255 799.87628,1030.3707 797.5878,1031.7987 794.79079,1031.7987 791.99385,1031.7987 790.39224,1030.3707 791.23182,1028.6255 Z M 130.54816,895.35304 C 130.54816,893.60781 134.43817,892.17989 139.19262,892.17989 143.94707,892.17989 147.83708,893.60781 147.83708,895.35304 147.83708,897.09827 143.94707,898.52619 139.19262,898.52619 134.43817,898.52619 130.54816,897.09827 130.54816,895.35304 Z M 272.79834,860.9349 C 272.00602,859.28782 273.17755,857.04302 275.40181,855.94649 280.86051,853.25523 282.13702,855.50859 277.78353,860.15028 275.6702,862.40364 273.65728,862.72043 272.79834,860.93511 Z M 958.07268,802.07458 C 940.58749,794.27165 940.539,789.64573 957.98624,793.84914 972.76834,797.41036 982.64443,802.44774 982.64443,806.42614 982.64443,811.2267 975.90735,810.03359 958.07227,802.07458 Z M 413.34547,739.86849 C 412.4797,738.06881 414.55478,736.69534 418.13935,736.69534 421.61558,736.69534 424.45977,738.12326 424.45977,739.86849 424.45977,741.61373 422.30252,743.04165 419.66588,743.04165 417.02916,743.04165 414.18505,741.61373 413.34547,739.86849 Z M 981.40992,536.01604 C 977.33468,534.21829 972.4252,532.1815 970.50004,531.48985 967.90752,530.55842 967.72031,529.30659 969.77802,526.66301 971.83573,524.01939 973.52198,524.12353 976.28022,527.06452 978.73244,529.6792 983.35995,530.30688 989.83012,528.9025 998.73613,526.96935 999.61984,527.38713 999.26929,533.36475 998.83954,540.69248 993.73025,541.45099 981.41,536.01608 Z M 909.63901,382.79538 C 904.9962,378.09575 905.03374,377.97038 910.82585,378.82894 914.11552,379.31654 917.26458,381.50041 917.82375,383.68196 919.20736,389.07949 915.44438,388.6719 909.63901,382.79538 Z M 370.12317,374.95578 C 370.12317,373.21055 372.62389,371.80449 375.68032,371.83121 380.17406,371.87035 380.52853,372.46849 377.53271,374.95578 372.74427,378.93149 370.12317,378.93149 370.12317,374.95578 Z M 852.06321,367.188 C 847.48486,365.04003 842.70612,360.91134 841.4437,358.01314 840.18128,355.11497 836.54394,352.74371 833.36072,352.74371 828.5744,352.74371 824.57473,347.56975 824.57473,341.37813 824.57473,336.75834 838.02082,342.12658 851.48716,352.12272 871.90002,367.27536 872.25905,376.663 852.06346,367.188 Z M 887.59457,279.84183 C 885.64734,275.79393 889.69172,273.38116 893.43798,276.3558 895.91918,278.32595 895.77552,279.29157 892.78182,280.76756 890.67381,281.80688 888.33964,281.39024 887.59474,279.84185 Z M 515.84405,248.1873 C 515.84405,246.52879 517.34893,244.02993 519.18831,242.63428 521.0276,241.23863 523.84528,236.88392 525.44978,232.95714 528.73195,224.92465 534.39424,223.54074 536.40692,230.27913 537.76014,234.80966 533.87878,240.07399 523.90456,247.23634 517.27953,251.99369 515.84405,252.16304 515.84405,248.18733 Z M 462.74237,225.81755 C 461.90279,224.07231 462.32744,222.64439 463.68577,222.64439 465.04419,222.64439 466.84248,224.07231 467.68207,225.81755 468.52165,227.56278 468.097,228.9907 466.73867,228.9907 465.38025,228.9907 463.58196,227.56278 462.74237,225.81755 Z M 678.85385,207.41325 C 678.85385,204.27183 680.11364,200.08301 681.65342,198.10477 685.39623,193.29624 670.4409,181.4216 660.62154,181.40526 653.34496,181.39256 638.90591,171.86682 631.49597,162.18937 627.62185,157.12974 627.86348,156.1618 635.3183,146.87874 639.69519,141.42853 645.10276,136.96923 647.33517,136.96923 649.5675,136.96923 652.12329,135.45323 653.01466,133.60036 653.90594,131.74746 657.3867,128.88746 660.74964,127.24479 669.25002,123.09268 667.2646,114.58289 655.98531,106.82427 650.91093,103.3338 646.75623,99.407024 646.75253,98.098098 646.7443,93.996574 655.88355,95.506392 658.84802,100.09557 660.40328,102.50307 664.82991,105.28336 668.685,106.27392 677.24549,108.47355 691.80679,123.62758 689.65605,128.09859 688.79786,129.8825 683.48564,133.96204 677.8511,137.16422 672.21647,140.36641 665.06693,146.45922 661.96316,150.70382 L 656.31997,158.42128 665.73453,165.73407 C 673.9755,172.13521 682.70994,180.231 692.95124,190.96067 694.59187,192.6796 697.72561,194.08601 699.91505,194.08601 702.63056,194.08601 703.64501,196.35529 703.10666,201.2256 702.5139,206.587 700.68037,208.3652 695.7448,208.3652 692.12985,208.3652 688.33246,209.43614 687.30616,210.74506 683.85512,215.14629 678.85385,213.17481 678.85385,207.41325 Z M 729.96442,195.22999 C 727.33453,191.85119 730.63046,187.89455 734.49025,189.79736 736.47658,190.7766 737.48683,192.85615 736.73526,194.41849 735.1343,197.74656 732.19725,198.09855 729.96442,195.22997 Z M 756.31883,182.96042 C 765.23974,176.98299 766.69967,176.98737 762.8286,182.97946 761.13749,185.59731 757.38926,187.7304 754.49921,187.71964 749.94465,187.70378 750.18719,187.06841 756.31883,182.95991 Z M 636.86648,95.718232 C 633.70038,93.089496 633.79012,92.635196 637.48394,92.593659 639.86117,92.568274 641.80617,93.972997 641.80617,95.718232 641.80617,99.588242 641.5279,99.588242 636.86648,95.718232 Z"
       ></path>
  <path  class="tree-trunk-path"
        d="M 59.696288,1528.5631 C 58.44909,1526.9608 66.714016,1497.2175 100.19482,1456.7001 105.91432,1449.7785 114.80576,1442.1528 119.95359,1439.7543 135.7046,1432.4151 155.74071,1419.2987 171.30061,1406.1406 191.27386,1389.2503 211.6218,1375.7496 221.05888,1373.1263 230.90033,1370.3904 235.58849,1363.6157 238.9843,1347.2229 241.71642,1334.0338 254.79304,1307.8626 258.65097,1307.8626 259.81128,1307.8626 264.94342,1304.2158 270.05568,1299.7586 275.16796,1295.3015 284.49234,1289.4502 290.77657,1286.7559 314.78702,1276.4615 332.62319,1263.5412 337.86435,1252.6459 343.50493,1240.9204 346.85461,1214.3342 350.39501,1153.1903 351.63233,1131.8216 353.95487,1111.1167 355.55622,1107.1796 357.15759,1103.2424 364.03075,1091.1474 370.82994,1080.3019 380.54078,1064.8119 387.30099,1057.8363 402.3507,1047.7771 L 421.50929,1034.9714 455.23174,1034.9714 488.95419,1034.9714 495.78059,1025.3692 C 503.50849,1014.4988 515.24009,1005.8009 562.77112,975.70142 602.88075,950.3016 612.29926,942.61971 617.45399,931.10158 623.65231,917.25182 625.19539,896.72236 620.84978,885.92571 615.81096,873.40719 616.01497,841.39514 621.22273,827.36409 623.73266,820.60168 628.08075,815.04845 632.36955,813.12763 641.09815,809.21841 644.08222,800.62477 638.52424,795.40334 632.0395,789.31133 585.21427,792.43105 543.01211,801.76679 530.10716,804.62157 507.753,808.09881 493.33627,809.49405 471.00178,811.6555 465.71014,813.26503 457.56764,820.37363 452.31164,824.96212 445.72423,828.71638 442.92895,828.71638 432.63331,828.71638 408.29084,838.54967 404.58616,844.20518 402.14974,847.92465 395.63972,850.85876 386.60647,852.30878 376.65263,853.90657 370.81705,856.75088 366.96229,861.88346 363.02817,867.1217 357.48727,869.74844 347.3551,871.17868 339.58724,872.27522 325.69435,876.89861 316.48203,881.45304 307.2697,886.00736 296.95375,889.62772 293.55771,889.49815 280.13714,888.98621 268.56327,900.34029 276.2688,906.45866 279.18931,908.7776 279.61714,920.73785 276.77956,920.73785 275.70204,920.73785 273.75704,916.09711 272.45733,910.4251 270.12464,900.2452 269.88733,900.10516 254.04019,899.55271 234.82454,898.88317 197.00992,904.35602 161.42098,912.95823 151.71802,915.30351 151.61878,915.23401 155.86383,909.06593 158.24106,905.61185 160.18606,901.28493 160.18606,899.45053 160.18606,897.61624 166.87119,895.49414 175.04191,894.7348 191.78781,893.17858 197.34014,888.88499 192.43202,881.28698 189.82581,877.25252 190.37004,875.85813 195.78896,872.68604 201.31405,869.45175 202.73898,869.74812 205.56863,874.71982 208.09148,879.1525 212.64355,880.7102 224.66846,881.25599 238.04967,881.86312 242.41554,880.58222 253.31175,872.8502 L 266.16747,863.7278 269.94646,870.65934 273.72547,877.59099 289.19873,870.71667 C 369.47071,835.05444 377.53271,830.9213 377.53271,825.43206 377.53271,823.74818 383.57997,822.3705 390.97105,822.3705 398.36223,822.3705 405.09635,820.94258 405.93593,819.19734 406.77551,817.45211 410.72142,816.02419 414.70479,816.02419 419.17817,816.02419 426.27708,811.77788 433.27201,804.91815 439.50072,798.80983 446.12715,793.81211 447.99748,793.81211 449.86781,793.81211 456.39183,787.30429 462.49531,779.35027 474.20641,764.08839 475.1256,755.73426 465.09375,755.73426 461.92321,755.73426 458.54265,754.09933 457.58139,752.10103 456.34062,749.52183 457.9107,749.09996 462.99273,750.64681 466.93033,751.84528 475.43121,753.66191 481.88368,754.68376 488.33615,755.70562 493.61544,757.33893 493.61544,758.31334 493.61544,759.28771 491.22611,763.35256 488.30577,767.34626 481.90352,776.10172 482.88512,776.779 507.21186,780.39097 527.16121,783.35298 532.53074,782.11238 557.83142,768.69565 570.82479,761.80536 579.30484,754.78885 586.23465,745.19447 591.66831,737.6715 599.44832,728.76008 603.52357,725.39136 L 610.9331,719.26638 604.03886,729.96689 C 600.24699,735.8522 597.5048,742.05565 597.94501,743.75237 598.38629,745.45429 611.44255,747.15437 627.06786,747.54458 646.0804,748.01939 657.16951,749.69445 660.80307,752.6405 665.37006,756.34338 668.26455,756.36572 679.32691,752.78361 705.0939,744.43999 740.30846,715.23939 745.61196,697.81878 747.33789,692.14975 752.03644,677.64291 756.05324,665.58137 762.88491,645.06747 763.1468,642.81342 760.10823,630.67668 756.01388,614.32313 727.28028,576.11918 716.9229,573.25805 705.7163,570.16225 688.20181,559.355 680.51425,550.79221 673.46778,542.94351 661.56493,510.4203 661.56493,499.01532 661.56493,489.99042 650.28457,474.26894 640.97762,470.32271 628.80696,465.16224 552.46824,470.85114 538.07266,477.99136 520.79963,486.55882 488.03376,492.70715 452.86299,493.98047 420.07563,495.16752 404.77082,492.18444 399.17069,483.51528 396.58921,479.51908 397.54438,479.16245 405.99208,480.96848 411.39486,482.12351 433.24336,483.35967 454.5443,483.71545 492.2539,484.34532 493.4377,484.16381 499.5215,476.82088 504.49009,470.82391 507.52734,469.64584 514.35144,471.06859 519.0714,472.05258 528.80144,470.869 535.97395,468.43804 543.14638,466.00722 559.48614,463.1464 572.28455,462.08066 593.41679,460.32096 604.75849,456.32218 604.75849,450.63125 604.75849,449.4615 599.76133,445.39653 593.65382,441.59798 582.58874,434.71617 572.6505,421.9812 572.6505,414.68408 572.6505,409.07931 564.83788,401.50099 558.65915,401.11241 555.71839,400.92741 548.27839,398.58039 542.12576,395.8967 535.97313,393.213 524.18316,389.6194 515.92589,387.91095 507.66862,386.20249 497.63874,381.80954 493.63718,378.14887 485.43252,370.64293 456.66548,361.91295 446.9268,363.97353 437.85596,365.89281 389.88193,368.28334 389.88193,366.81604 389.88193,363.5726 407.06407,354.7619 415.81531,353.51786 439.87811,350.09717 497.51607,351.26337 504.99723,355.32231 509.2196,357.61316 518.11104,360.55112 524.756,361.8511 532.0618,363.28039 536.59364,365.71055 536.22028,367.99868 535.42993,372.84453 538.71153,372.86569 542.46849,368.03887 544.6506,365.23539 546.79056,365.18896 550.98946,367.85419 554.07331,369.81155 560.08886,372.28982 564.35725,373.36142 571.06601,375.0457 572.8662,373.95967 577.6386,365.34899 581.43286,358.50313 584.60562,355.87411 587.78431,356.94203 590.75636,357.94052 592.40926,356.8278 592.40926,353.82837 592.40926,348.56656 602.97403,336.38314 618.52104,323.7159 626.17567,317.47913 629.4506,312.36817 630.75707,304.62009 631.73817,298.80125 634.73863,290.04627 637.42466,285.16456 L 642.30837,276.28874 635.8932,263.83424 C 628.42183,249.32935 621.42995,244.27591 601.05372,238.65359 592.90323,236.40468 582.66556,233.44092 578.3034,232.06749 573.94124,230.69405 563.5119,230.36953 555.12719,231.34633 542.73598,232.7899 540.09719,232.29013 541.03063,228.67673 543.12382,220.57386 575.99524,218.2757 596.92323,224.76905 614.96348,230.36643 615.07396,230.36082 631.50107,223.01274 640.56491,218.95834 652.35743,212.93309 657.70662,209.62333 669.02379,202.62084 676.38401,201.87499 676.38401,207.73057 676.38401,213.48645 671.25035,219.47124 666.31305,219.47124 657.82032,219.47124 655.85737,227.55621 660.23715,244.49736 665.89704,266.38997 668.05832,268.01834 683.59052,262.09231 693.37267,258.36011 697.33595,258.04422 699.9125,260.79148 701.78398,262.78701 705.43713,263.5545 708.03047,262.49702 710.87721,261.33621 720.10875,265.00441 731.32761,271.75434 741.54767,277.90331 751.16434,282.93432 752.69787,282.93432 754.2314,282.93432 757.41601,284.27599 759.7748,285.91581 765.74013,290.06284 778.00761,293.60659 783.35211,292.72664 785.81035,292.32196 789.45534,293.73274 791.45221,295.86194 794.22725,298.82084 796.54816,298.87539 801.30056,296.09358 804.72031,294.09164 809.32344,292.45378 811.52975,292.45378 813.73615,292.45378 817.46948,290.21191 819.82613,287.4719 825.00795,281.447 860.06403,277.12773 862.51024,282.21277 863.96391,285.23473 831.1763,305.1464 824.74647,305.1464 820.63113,305.1464 821.64328,313.75932 826.01169,315.91294 828.16037,316.9723 835.69307,317.83901 842.75099,317.83901 849.80898,317.83901 857.77596,319.79847 860.45541,322.19337 867.70746,328.67524 888.41719,334.6434 901.96076,334.15445 910.43035,333.84856 913.60138,334.85878 912.88159,337.63318 910.80741,345.6275 897.33729,347.34985 881.01482,341.70786 830.98242,324.41376 827.8975,324.06303 824.57473,335.29136 822.02034,343.92297 816.92365,345.50355 811.78448,339.2578 805.13046,331.17118 789.05992,326.66067 768.07167,326.98899 737.3696,327.4693 730.92931,328.93544 717.13646,338.58474 710.34438,343.33638 692.9244,354.92087 678.42533,364.328 663.92635,373.73517 651.58915,383.18761 651.00939,385.33346 649.49431,390.94099 655.99691,413.31392 661.33977,420.87618 663.84098,424.41634 667.16975,430.50879 668.73712,434.41495 670.30448,438.32113 674.61123,442.35478 678.30769,443.37863 682.00414,444.4025 691.14133,447.93414 698.61262,451.22679 724.74687,462.74433 741.49687,465.12648 764.90195,460.6543 776.66657,458.40637 792.24676,453.93571 799.52474,450.71953 806.80263,447.50335 819.86194,443.93676 828.54542,442.79375 844.8702,440.64499 849.03436,435.52809 839.68813,429.10179 834.38084,425.45256 816.717,417.85955 806.66836,414.90786 799.46439,412.79174 797.66437,407.57866 803.196,404.8515 805.02187,403.95138 818.46623,408.35174 833.07248,414.63017 L 859.62925,426.04544 894.58621,424.48786 C 940.44021,422.44473 959.58505,419.73029 962.75534,414.82266 964.58624,411.98833 970.6614,411.25105 983.47768,412.30777 994.44881,413.21233 1003.6581,412.39451 1006.7965,410.23647 1010.0827,407.97693 1012.5271,407.80082 1013.4676,409.75584 1015.3617,413.69328 999.04437,422.55307 989.89853,422.55307 986.06937,422.55307 982.2495,423.98099 981.40992,425.72623 980.57034,427.47146 976.71878,428.89938 972.85092,428.89938 967.08786,428.89938 966.04633,430.01941 967.08128,435.1041 968.27759,440.98116 966.92897,441.30759 941.53418,441.28598 924.11091,441.27011 910.40038,442.99748 902.37487,446.21668 889.08743,451.5465 860.82894,457.95325 846.80334,458.81581 842.04889,459.10838 829.35981,465.34791 818.60545,472.6818 807.851,480.01569 797.63588,486.01615 795.9051,486.01615 791.05556,486.01615 789.23717,492.12263 792.55656,497.26118 796.34391,503.12415 846.28369,503.73352 862.63102,498.11624 872.17994,494.835 874.9637,495.14118 884.26876,500.4961 890.14213,503.87614 899.27085,512.01795 904.55475,518.58895 909.83866,525.15998 917.06691,531.43686 920.61756,532.53759 924.16821,533.63833 929.8519,536.9372 933.24793,539.86847 936.64397,542.79973 943.31256,547.12944 948.06701,549.49007 952.82146,551.85071 958.90378,555.66982 961.58324,557.97699 964.26269,560.28419 971.05271,562.17187 976.6721,562.17187 983.29227,562.17187 991.77751,565.5232 1000.7743,571.69133 1014.7658,581.28365 1036.9814,585.10908 1036.9814,577.92601 1036.9814,569.7816 1027.7823,558.09694 1015.4871,550.62406 1008.1178,546.14506 1002.6067,541.81428 1003.2404,541.00017 1005.1441,538.55428 1024.4824,547.01044 1027.4338,551.57941 1028.9424,553.91478 1031.6938,555.82556 1033.5481,555.82556 1035.4024,555.82556 1039.7259,561.53724 1043.1561,568.51818 1046.915,576.1684 1051.2848,581.21079 1054.1556,581.21079 1056.7752,581.21079 1059.6054,582.63871 1060.445,584.38395 1061.2846,586.12918 1065.0178,587.5571 1068.7413,587.5571 1072.4646,587.5571 1076.5679,588.91486 1077.8595,590.57439 1079.2732,592.39058 1083.9176,592.51674 1089.5271,590.89139 1099.3344,588.04964 1108.607,589.63139 1108.607,594.14616 1108.607,595.61777 1113.3305,598.45527 1119.1038,600.45166 1124.8771,602.44805 1133.7135,606.26018 1138.7404,608.92306 1143.9704,611.69351 1150.3096,612.85009 1153.5595,611.62671 1164.6442,607.45392 1182.7023,606.0134 1182.7023,609.3019 1182.7023,611.08083 1187.148,615.74645 1192.5817,619.66996 1210.6595,632.72346 1201.9367,634.93201 1176.5277,623.73471 1171.0941,621.34018 1159.8009,619.36026 1151.4319,619.33484 1142.4305,619.30628 1129.8205,616.49576 1120.5588,612.45078 1107.3438,606.67923 1096.8138,605.28739 1053.0354,603.52552 1012.1992,601.88205 999.59292,600.34358 993.75915,596.29143 982.82605,588.69722 943.05833,568.51818 939.02523,568.51818 937.11053,568.51818 932.84774,566.24848 929.55239,563.47442 921.20694,556.44918 870.10543,558.06565 865.74113,565.49292 864.155,568.1921 859.2731,572.27725 854.89242,574.57103 844.81248,579.84894 827.04458,604.36663 827.04458,612.99783 827.04458,616.59682 829.41176,625.50288 832.30502,632.78905 836.81529,644.14732 837.7232,653.0669 838.67138,695.33242 839.38105,726.96175 841.03625,748.9157 843.29032,756.59178 845.22248,763.17172 846.80334,772.85498 846.80334,778.11014 846.80334,784.32413 848.31464,788.37209 851.12557,789.68733 853.5028,790.79961 859.05905,795.70786 863.47282,800.59462 871.20896,809.15971 872.1992,809.41017 890.97241,807.55018 909.27586,805.73682 910.95058,806.11443 918.8233,813.82911 934.92389,829.60666 958.02024,840.96307 981.91237,844.85007 1006.804,848.89955 1012.283,847.81306 1012.283,838.82764 1012.283,831.71501 1006.1583,824.04751 996.84193,819.49668 993.10876,817.67328 990.05438,814.71801 990.05438,812.92952 990.05438,808.42544 993.27045,808.84324 1004.9958,814.87075 1014.6476,819.83229 1015.3965,819.77941 1021.8148,813.68293 1025.5093,810.17363 1032.3782,806.24241 1037.079,804.94682 L 1045.6259,802.59138 1039.8927,810.54637 C 1034.2787,818.33594 1034.239,818.84586 1037.9857,835.05486 1040.7367,846.95631 1041.1011,853.31467 1039.2825,857.68051 1036.0055,865.54697 1037.7132,868.6996 1049.3998,876.35949 1061.4155,884.23494 1071.9617,884.32421 1089.2183,876.6969 1096.6393,873.41671 1108.7612,869.66943 1116.1559,868.3697 1134.9153,865.07248 1140.715,861.72184 1140.715,854.18105 1140.715,848.66822 1142.3156,847.75626 1151.9916,847.75626 1158.1938,847.75626 1165.5374,846.19602 1168.3108,844.28917 1171.9574,841.78174 1174.1003,841.78174 1176.0519,844.28917 1178.0035,846.79649 1176.9046,847.75626 1172.082,847.75626 1165.2342,847.75626 1162.5867,855.44989 1168.5007,858.16346 1173.9093,860.64508 1168.7428,864.00566 1155.1463,866.84955 1124.7425,873.20887 1120.3757,877.65213 1141.3324,880.90493 1148.4641,882.01183 1161.928,884.44416 1171.2521,886.31008 1180.5763,888.176 1192.802,888.75912 1198.4204,887.606 1206.1767,886.01392 1207.9459,886.3965 1205.7699,889.1949 1202.696,893.14823 1122.1604,896.79418 1056.7402,895.94166 1023.402,895.50694 1018.7942,894.67589 990.05438,883.9098 973.07419,877.549 949.95718,867.44896 938.68316,861.46534 926.4729,854.98481 910.99438,849.52931 900.40055,847.97235 890.61914,846.5347 874.47088,842.15511 864.51559,838.23965 841.65981,829.25064 811.64024,830.26012 796.14574,840.53871 790.69784,844.15272 779.85151,848.13524 772.04277,849.38864 761.90586,851.01583 755.28166,854.28481 748.88286,860.81802 743.95371,865.85064 738.57323,869.96834 736.92618,869.96834 735.27912,869.96834 729.34927,874.23295 723.74873,879.44528 709.48759,892.71774 702.99272,910.56927 701.79789,939.77772 701.16232,955.32131 698.81465,969.63012 695.03027,981.02873 691.84351,990.62752 687.23198,1004.7067 684.78239,1012.3158 682.33279,1019.9249 675.04148,1036.9077 668.57946,1050.0552 659.54806,1068.4304 657.36883,1075.2524 659.15815,1079.548 661.74935,1085.7683 681.97854,1102.633 691.33851,1106.376 694.66004,1107.7043 703.49056,1114.195 710.96184,1120.7998 718.43313,1127.4045 731.77029,1135.3393 740.59999,1138.4327 758.84482,1144.8245 797.93161,1146.8885 822.00618,1142.7314 837.33758,1140.084 838.52846,1139.2131 852.46398,1120.4569 869.51028,1097.5137 869.68926,1091.6007 853.92103,1072.3293 844.47214,1060.7813 844.34469,1060.3576 850.31777,1060.3576 861.00685,1060.3576 879.83843,1070.1089 887.67336,1079.7008 896.97043,1091.0828 911.01933,1092.8092 911.01933,1082.5697 911.01933,1073.5093 921.68371,1074.2494 931.63414,1084.0001 943.06022,1095.1969 950.55908,1098.0954 958.68537,1094.4559 964.19987,1091.9861 966.23173,1092.415 968.58237,1096.5451 971.59813,1101.8438 990.78348,1107.7755 1008.5782,1108.9111 1015.4953,1109.3521 1018.4576,1110.9686 1018.4576,1114.3012 1018.4576,1120.8734 1001.2473,1121.2668 977.70515,1115.233 967.51704,1112.6216 953.62416,1109.3401 946.83208,1107.9405 940.04001,1106.5409 931.5593,1103.9301 927.98609,1102.1386 916.9309,1096.5961 902.74954,1104.1484 893.53924,1120.4835 889.20005,1128.1792 882.52159,1137.8575 878.6981,1141.9909 874.87462,1146.1242 872.29849,1151.3547 872.97341,1153.6142 874.87503,1159.9809 891.61721,1170.9031 915.121,1181.1103 935.04392,1189.7622 937.0352,1190.0777 943.91009,1185.6715 953.14987,1179.7495 953.0067,1179.7303 953.0067,1186.8957 953.0067,1198.1147 961.53483,1201.8356 994.99407,1205.215 1012.6758,1207.001 1018.5957,1210.7422 1008.7591,1213.9141 1002.9116,1215.7996 999.63713,1222.1889 1004.5183,1222.1889 1005.6813,1222.1889 1011.803,1227.2606 1018.122,1233.4594 L 1029.611,1244.73 1051.2026,1240.0792 C 1077.2602,1234.4664 1112.3192,1235.5719 1130.8356,1242.5903 1138.3069,1245.4222 1148.5876,1248.604 1153.6816,1249.661 1158.7757,1250.7176 1162.9436,1253.0105 1162.9436,1254.7555 1162.9436,1259.8494 1110.4598,1252.6791 1092.1957,1245.0898 1081.9931,1240.8504 1052.1042,1248.5204 1046.8608,1256.7237 1044.8232,1259.9115 1041.0932,1263.454 1038.5719,1264.5959 1034.9815,1266.222 1034.3539,1268.5576 1035.677,1275.3688 1036.6061,1280.1519 1039.1201,1286.5656 1041.2636,1289.6214 1044.947,1294.8726 1044.2928,1295.0756 1029.3393,1293.32 1020.6376,1292.2982 1012.0582,1290.8791 1010.2741,1290.1662 1004.6647,1287.9247 1009.874,1282.2716 1016.703,1283.1894 1028.0434,1284.7133 1025.6287,1275.1967 1009.2881,1253.9659 990.96633,1230.1609 974.3912,1215.8425 965.15595,1215.8425 961.50272,1215.8425 953.10673,1213.7371 946.49824,1211.1636 939.88976,1208.5902 928.36999,1204.4963 920.89871,1202.0661 913.42743,1199.6358 898.76091,1193.5666 888.30646,1188.5787 L 869.29845,1179.5099 863.44887,1186.5702 C 859.87829,1190.8798 854.47073,1193.6305 849.56908,1193.6305 840.0265,1193.6305 831.98427,1198.5548 831.98427,1204.3976 831.98427,1210.7943 793.70776,1234.6782 783.20482,1234.8354 775.79562,1234.9464 781.26435,1228.2298 795.05975,1220.2759 803.27808,1215.5375 811.22357,1208.6748 812.71651,1205.0255 814.20953,1201.376 819.7112,1193.6382 824.94258,1187.8302 830.17396,1182.0222 834.45412,1174.5256 834.45412,1171.1711 834.45412,1166.0884 832.49907,1164.9795 822.72235,1164.5168 772.26036,1162.1282 745.75834,1159.7934 726.01341,1155.9969 710.39699,1152.9941 710.03326,1153.0948 697.95053,1163.7731 691.21773,1169.7232 683.97631,1174.5915 681.8585,1174.5915 679.74061,1174.5915 676.25319,1176.4797 674.10862,1178.7874 668.30094,1185.0369 650.19163,1191.6174 645.35838,1189.2346 637.74805,1185.4827 647.96152,1175.4087 661.86691,1172.9516 674.80602,1170.6653 680.53532,1163.978 681.87579,1149.5974 682.47843,1143.1352 680.66623,1141.5243 666.50463,1135.9316 657.67493,1132.4447 649.39477,1128.2932 648.10428,1126.7063 646.81378,1125.1194 643.26725,1123.8211 640.22308,1123.8211 637.17883,1123.8211 634.01348,1122.4185 633.18888,1120.7043 631.62934,1117.4625 615.14559,1129.199 605.62779,1140.328 601.1251,1145.593 595.77969,1146.722 570.29451,1147.7912 553.77915,1148.484 539.2013,1149.8967 537.89936,1150.9305 536.59742,1151.9639 533.30265,1158.4249 530.57767,1165.2873 526.51938,1175.5073 524.31793,1177.7647 518.40948,1177.7647 514.442,1177.7647 510.50902,1176.3368 509.66944,1174.5915 506.10973,1167.1916 501.08977,1172.756 492.60042,1193.5115 487.63043,1205.6626 482.59664,1216.3728 481.41424,1217.3116 480.23184,1218.2509 476.31755,1225.4789 472.71586,1233.375 466.56331,1246.863 466.09931,1250.7294 465.04361,1297.3074 L 463.91991,1346.8835 478.25605,1364.6583 C 492.89334,1382.8064 502.36421,1390.5455 547.95204,1421.6103 L 573.88542,1439.2819 598.24402,1439.8562 C 618.99649,1440.3449 623.56702,1441.4299 629.11709,1447.1824 636.46727,1454.8008 703.25107,1498.2465 707.61817,1498.2508 713.43457,1498.2572 747.91501,1521.2681 746.5035,1524.2022 528.63252,1545.0073 284.6431,1528.8493 59.696288,1528.5631 Z M 1054.2704,1295.5555 C 1054.2704,1291.6954 1065.7979,1286.4611 1078.3519,1284.6206 1090.5173,1282.8369 1090.1285,1287.1349 1077.5117,1293.9076 1068.2903,1298.8578 1054.2704,1299.8518 1054.2704,1295.5555 Z M 825.80966,1057.1839 C 821.09629,1054.5817 821.12461,1054.4466 826.42712,1054.2338 829.48355,1054.1111 831.98427,1055.4387 831.98427,1057.1839 831.98427,1058.9291 831.70683,1060.2567 831.36681,1060.134 831.02762,1060.0113 828.52649,1058.6838 825.80966,1057.1839 Z M 808.93238,1051.8953 C 805.92427,1048.0306 807.23049,1041.3181 810.99058,1041.3181 813.04879,1041.3181 814.69535,1044.1387 814.69535,1047.6644 814.69535,1053.9861 812.06365,1055.9182 808.93238,1051.8953 Z M 791.23182,1028.6255 C 792.0714,1026.8803 794.3598,1025.4524 796.31732,1025.4524 798.27475,1025.4524 799.87628,1026.8803 799.87628,1028.6255 799.87628,1030.3707 797.5878,1031.7987 794.79079,1031.7987 791.99385,1031.7987 790.39224,1030.3707 791.23182,1028.6255 Z M 130.54816,895.35304 C 130.54816,893.60781 134.43817,892.17989 139.19262,892.17989 143.94707,892.17989 147.83708,893.60781 147.83708,895.35304 147.83708,897.09827 143.94707,898.52619 139.19262,898.52619 134.43817,898.52619 130.54816,897.09827 130.54816,895.35304 Z M 272.79834,860.9349 C 272.00602,859.28782 273.17755,857.04302 275.40181,855.94649 280.86051,853.25523 282.13702,855.50859 277.78353,860.15028 275.6702,862.40364 273.65728,862.72043 272.79834,860.93511 Z M 958.07268,802.07458 C 940.58749,794.27165 940.539,789.64573 957.98624,793.84914 972.76834,797.41036 982.64443,802.44774 982.64443,806.42614 982.64443,811.2267 975.90735,810.03359 958.07227,802.07458 Z M 413.34547,739.86849 C 412.4797,738.06881 414.55478,736.69534 418.13935,736.69534 421.61558,736.69534 424.45977,738.12326 424.45977,739.86849 424.45977,741.61373 422.30252,743.04165 419.66588,743.04165 417.02916,743.04165 414.18505,741.61373 413.34547,739.86849 Z M 981.40992,536.01604 C 977.33468,534.21829 972.4252,532.1815 970.50004,531.48985 967.90752,530.55842 967.72031,529.30659 969.77802,526.66301 971.83573,524.01939 973.52198,524.12353 976.28022,527.06452 978.73244,529.6792 983.35995,530.30688 989.83012,528.9025 998.73613,526.96935 999.61984,527.38713 999.26929,533.36475 998.83954,540.69248 993.73025,541.45099 981.41,536.01608 Z M 909.63901,382.79538 C 904.9962,378.09575 905.03374,377.97038 910.82585,378.82894 914.11552,379.31654 917.26458,381.50041 917.82375,383.68196 919.20736,389.07949 915.44438,388.6719 909.63901,382.79538 Z M 370.12317,374.95578 C 370.12317,373.21055 372.62389,371.80449 375.68032,371.83121 380.17406,371.87035 380.52853,372.46849 377.53271,374.95578 372.74427,378.93149 370.12317,378.93149 370.12317,374.95578 Z M 852.06321,367.188 C 847.48486,365.04003 842.70612,360.91134 841.4437,358.01314 840.18128,355.11497 836.54394,352.74371 833.36072,352.74371 828.5744,352.74371 824.57473,347.56975 824.57473,341.37813 824.57473,336.75834 838.02082,342.12658 851.48716,352.12272 871.90002,367.27536 872.25905,376.663 852.06346,367.188 Z M 887.59457,279.84183 C 885.64734,275.79393 889.69172,273.38116 893.43798,276.3558 895.91918,278.32595 895.77552,279.29157 892.78182,280.76756 890.67381,281.80688 888.33964,281.39024 887.59474,279.84185 Z M 515.84405,248.1873 C 515.84405,246.52879 517.34893,244.02993 519.18831,242.63428 521.0276,241.23863 523.84528,236.88392 525.44978,232.95714 528.73195,224.92465 534.39424,223.54074 536.40692,230.27913 537.76014,234.80966 533.87878,240.07399 523.90456,247.23634 517.27953,251.99369 515.84405,252.16304 515.84405,248.18733 Z M 462.74237,225.81755 C 461.90279,224.07231 462.32744,222.64439 463.68577,222.64439 465.04419,222.64439 466.84248,224.07231 467.68207,225.81755 468.52165,227.56278 468.097,228.9907 466.73867,228.9907 465.38025,228.9907 463.58196,227.56278 462.74237,225.81755 Z M 678.85385,207.41325 C 678.85385,204.27183 680.11364,200.08301 681.65342,198.10477 685.39623,193.29624 670.4409,181.4216 660.62154,181.40526 653.34496,181.39256 638.90591,171.86682 631.49597,162.18937 627.62185,157.12974 627.86348,156.1618 635.3183,146.87874 639.69519,141.42853 645.10276,136.96923 647.33517,136.96923 649.5675,136.96923 652.12329,135.45323 653.01466,133.60036 653.90594,131.74746 657.3867,128.88746 660.74964,127.24479 669.25002,123.09268 667.2646,114.58289 655.98531,106.82427 650.91093,103.3338 646.75623,99.407024 646.75253,98.098098 646.7443,93.996574 655.88355,95.506392 658.84802,100.09557 660.40328,102.50307 664.82991,105.28336 668.685,106.27392 677.24549,108.47355 691.80679,123.62758 689.65605,128.09859 688.79786,129.8825 683.48564,133.96204 677.8511,137.16422 672.21647,140.36641 665.06693,146.45922 661.96316,150.70382 L 656.31997,158.42128 665.73453,165.73407 C 673.9755,172.13521 682.70994,180.231 692.95124,190.96067 694.59187,192.6796 697.72561,194.08601 699.91505,194.08601 702.63056,194.08601 703.64501,196.35529 703.10666,201.2256 702.5139,206.587 700.68037,208.3652 695.7448,208.3652 692.12985,208.3652 688.33246,209.43614 687.30616,210.74506 683.85512,215.14629 678.85385,213.17481 678.85385,207.41325 Z M 729.96442,195.22999 C 727.33453,191.85119 730.63046,187.89455 734.49025,189.79736 736.47658,190.7766 737.48683,192.85615 736.73526,194.41849 735.1343,197.74656 732.19725,198.09855 729.96442,195.22997 Z M 756.31883,182.96042 C 765.23974,176.98299 766.69967,176.98737 762.8286,182.97946 761.13749,185.59731 757.38926,187.7304 754.49921,187.71964 749.94465,187.70378 750.18719,187.06841 756.31883,182.95991 Z M 636.86648,95.718232 C 633.70038,93.089496 633.79012,92.635196 637.48394,92.593659 639.86117,92.568274 641.80617,93.972997 641.80617,95.718232 641.80617,99.588242 641.5279,99.588242 636.86648,95.718232 Z"
       ></path>
  </g>
</svg>